<?xml version="1.0" encoding="UTF-8" standalone="no"?>
<!DOCTYPE svg PUBLIC "-//W3C//DTD SVG 1.1//EN"
 "http://www.w3.org/Graphics/SVG/1.1/DTD/svg11.dtd">
<!-- Generated by graphviz version 2.43.0 (0)
 -->
<!-- Title: exported_graph Pages: 1 -->
<svg width="1306pt" height="311pt"
 viewBox="0.00 0.00 1306.00 310.60" xmlns="http://www.w3.org/2000/svg" xmlns:xlink="http://www.w3.org/1999/xlink">
<g id="graph0" class="graph" transform="scale(1 1) rotate(0) translate(4 306.6)">
<title>exported_graph</title>
<polygon fill="white" stroke="transparent" points="-4,4 -4,-306.6 1302,-306.6 1302,4 -4,4"/>
<!-- 6 -->
<g id="node1" class="node">
<title>6</title>
<ellipse fill="none" stroke="black" cx="300" cy="-197.6" rx="18" ry="18"/>
<text text-anchor="middle" x="300" y="-193.9" font-family="Helvetica,Arial,sans-serif" font-size="14.00">6</text>
</g>
<!-- 1 -->
<g id="node2" class="node">
<title>1</title>
<ellipse fill="none" stroke="black" cx="579" cy="-284.6" rx="18" ry="18"/>
<text text-anchor="middle" x="579" y="-280.9" font-family="Helvetica,Arial,sans-serif" font-size="14.00">1</text>
</g>
<!-- 6&#45;&gt;1 -->
<g id="edge1" class="edge">
<title>6&#45;&gt;1</title>
<path fill="none" stroke="black" d="M317.03,-203.79C363.92,-218.07 495.19,-258.06 552.11,-275.4"/>
<polygon fill="black" stroke="black" points="551.25,-278.8 561.84,-278.37 553.29,-272.1 551.25,-278.8"/>
<text text-anchor="middle" x="465.5" y="-237.4" font-family="Helvetica,Arial,sans-serif" font-size="14.00">1/2</text>
</g>
<!-- 5 -->
<g id="node3" class="node">
<title>5</title>
<ellipse fill="none" stroke="black" cx="986" cy="-197.6" rx="18" ry="18"/>
<text text-anchor="middle" x="986" y="-193.9" font-family="Helvetica,Arial,sans-serif" font-size="14.00">5</text>
</g>
<!-- 5&#45;&gt;1 -->
<g id="edge2" class="edge">
<title>5&#45;&gt;1</title>
<path fill="none" stroke="black" d="M968.51,-202.25C904.72,-215.57 684.2,-261.63 606.42,-277.87"/>
<polygon fill="black" stroke="black" points="605.5,-274.49 596.42,-279.96 606.93,-281.34 605.5,-274.49"/>
<text text-anchor="middle" x="815.5" y="-237.4" font-family="Helvetica,Arial,sans-serif" font-size="14.00">0/1</text>
</g>
<!-- 4 -->
<g id="node4" class="node">
<title>4</title>
<ellipse fill="none" stroke="black" cx="579" cy="-197.6" rx="18" ry="18"/>
<text text-anchor="middle" x="579" y="-193.9" font-family="Helvetica,Arial,sans-serif" font-size="14.00">4</text>
</g>
<!-- 4&#45;&gt;1 -->
<g id="edge3" class="edge">
<title>4&#45;&gt;1</title>
<path fill="none" stroke="black" d="M579,-215.8C579,-227.43 579,-243.05 579,-256.36"/>
<polygon fill="black" stroke="black" points="575.5,-256.42 579,-266.42 582.5,-256.42 575.5,-256.42"/>
<text text-anchor="middle" x="588.5" y="-237.4" font-family="Helvetica,Arial,sans-serif" font-size="14.00">1/2</text>
</g>
<!-- 3 -->
<g id="node5" class="node">
<title>3</title>
<ellipse fill="none" stroke="black" cx="468" cy="-197.6" rx="18" ry="18"/>
<text text-anchor="middle" x="468" y="-193.9" font-family="Helvetica,Arial,sans-serif" font-size="14.00">3</text>
</g>
<!-- 3&#45;&gt;1 -->
<g id="edge4" class="edge">
<title>3&#45;&gt;1</title>
<path fill="none" stroke="black" d="M482.06,-209.36C500.91,-223.8 534.57,-249.58 556.85,-266.63"/>
<polygon fill="black" stroke="black" points="554.99,-269.62 565.06,-272.92 559.24,-264.06 554.99,-269.62"/>
<text text-anchor="middle" x="539.5" y="-237.4" font-family="Helvetica,Arial,sans-serif" font-size="14.00">1/1</text>
</g>
<!-- 2 -->
<g id="node6" class="node">
<title>2</title>
<ellipse fill="none" stroke="black" cx="812" cy="-197.6" rx="18" ry="18"/>
<text text-anchor="middle" x="812" y="-193.9" font-family="Helvetica,Arial,sans-serif" font-size="14.00">2</text>
</g>
<!-- 2&#45;&gt;1 -->
<g id="edge5" class="edge">
<title>2&#45;&gt;1</title>
<path fill="none" stroke="black" d="M795.24,-204.71C755.11,-219.35 653.23,-256.52 605.03,-274.1"/>
<polygon fill="black" stroke="black" points="603.8,-270.82 595.6,-277.54 606.2,-277.4 603.8,-270.82"/>
<text text-anchor="middle" x="718.5" y="-237.4" font-family="Helvetica,Arial,sans-serif" font-size="14.00">1/2</text>
</g>
<!-- 0 -->
<g id="node7" class="node">
<title>0</title>
<ellipse fill="none" stroke="black" cx="608" cy="-18" rx="18" ry="18"/>
<text text-anchor="middle" x="608" y="-14.3" font-family="Helvetica,Arial,sans-serif" font-size="14.00">0</text>
</g>
<!-- 16 -->
<g id="node8" class="node">
<title>16</title>
<ellipse fill="none" stroke="black" cx="1112" cy="-107.8" rx="20.6" ry="20.6"/>
<text text-anchor="middle" x="1112" y="-104.1" font-family="Helvetica,Arial,sans-serif" font-size="14.00">16</text>
</g>
<!-- 0&#45;&gt;16 -->
<g id="edge6" class="edge">
<title>0&#45;&gt;16</title>
<path fill="none" stroke="black" d="M625.64,-22.07C699.79,-34.99 986.73,-84.98 1081.46,-101.48"/>
<polygon fill="black" stroke="black" points="1081.08,-104.96 1091.53,-103.23 1082.28,-98.07 1081.08,-104.96"/>
<text text-anchor="middle" x="926.5" y="-57.8" font-family="Helvetica,Arial,sans-serif" font-size="14.00">1/1</text>
</g>
<!-- 15 -->
<g id="node9" class="node">
<title>15</title>
<ellipse fill="none" stroke="black" cx="41" cy="-107.8" rx="20.6" ry="20.6"/>
<text text-anchor="middle" x="41" y="-104.1" font-family="Helvetica,Arial,sans-serif" font-size="14.00">15</text>
</g>
<!-- 0&#45;&gt;15 -->
<g id="edge7" class="edge">
<title>0&#45;&gt;15</title>
<path fill="none" stroke="black" d="M590.09,-21.77C508.92,-34.34 174.95,-86.06 71.62,-102.06"/>
<polygon fill="black" stroke="black" points="70.88,-98.63 61.53,-103.62 71.95,-105.55 70.88,-98.63"/>
<text text-anchor="middle" x="311.5" y="-57.8" font-family="Helvetica,Arial,sans-serif" font-size="14.00">1/1</text>
</g>
<!-- 14 -->
<g id="node10" class="node">
<title>14</title>
<ellipse fill="none" stroke="black" cx="398" cy="-107.8" rx="20.6" ry="20.6"/>
<text text-anchor="middle" x="398" y="-104.1" font-family="Helvetica,Arial,sans-serif" font-size="14.00">14</text>
</g>
<!-- 0&#45;&gt;14 -->
<g id="edge8" class="edge">
<title>0&#45;&gt;14</title>
<path fill="none" stroke="black" d="M591.52,-25.89C555.83,-40.81 471.03,-76.26 426.47,-94.89"/>
<polygon fill="black" stroke="black" points="424.97,-91.73 417.09,-98.82 427.67,-98.19 424.97,-91.73"/>
<text text-anchor="middle" x="530.5" y="-57.8" font-family="Helvetica,Arial,sans-serif" font-size="14.00">1/1</text>
</g>
<!-- 13 -->
<g id="node11" class="node">
<title>13</title>
<ellipse fill="none" stroke="black" cx="692" cy="-107.8" rx="20.6" ry="20.6"/>
<text text-anchor="middle" x="692" y="-104.1" font-family="Helvetica,Arial,sans-serif" font-size="14.00">13</text>
</g>
<!-- 0&#45;&gt;13 -->
<g id="edge9" class="edge">
<title>0&#45;&gt;13</title>
<path fill="none" stroke="black" d="M620.04,-31.58C633.33,-45.48 654.99,-68.11 671.08,-84.93"/>
<polygon fill="black" stroke="black" points="668.59,-87.39 678.03,-92.19 673.64,-82.55 668.59,-87.39"/>
<text text-anchor="middle" x="664.5" y="-57.8" font-family="Helvetica,Arial,sans-serif" font-size="14.00">1/1</text>
</g>
<!-- 12 -->
<g id="node12" class="node">
<title>12</title>
<ellipse fill="none" stroke="black" cx="839" cy="-107.8" rx="20.6" ry="20.6"/>
<text text-anchor="middle" x="839" y="-104.1" font-family="Helvetica,Arial,sans-serif" font-size="14.00">12</text>
</g>
<!-- 0&#45;&gt;12 -->
<g id="edge10" class="edge">
<title>0&#45;&gt;12</title>
<path fill="none" stroke="black" d="M624.61,-25.31C663.62,-40.14 761.43,-77.32 810.29,-95.89"/>
<polygon fill="black" stroke="black" points="809.06,-99.16 819.66,-99.45 811.55,-92.62 809.06,-99.16"/>
<text text-anchor="middle" x="746.5" y="-57.8" font-family="Helvetica,Arial,sans-serif" font-size="14.00">0/1</text>
</g>
<!-- 11 -->
<g id="node13" class="node">
<title>11</title>
<ellipse fill="none" stroke="black" cx="1238" cy="-107.8" rx="20.6" ry="20.6"/>
<text text-anchor="middle" x="1238" y="-104.1" font-family="Helvetica,Arial,sans-serif" font-size="14.00">11</text>
</g>
<!-- 0&#45;&gt;11 -->
<g id="edge11" class="edge">
<title>0&#45;&gt;11</title>
<path fill="none" stroke="black" d="M625.84,-21.49C713.14,-33.65 1095.64,-86.96 1207.3,-102.52"/>
<polygon fill="black" stroke="black" points="1207.14,-106.03 1217.53,-103.95 1208.11,-99.1 1207.14,-106.03"/>
<text text-anchor="middle" x="1037.5" y="-57.8" font-family="Helvetica,Arial,sans-serif" font-size="14.00">0/1</text>
</g>
<!-- 10 -->
<g id="node14" class="node">
<title>10</title>
<ellipse fill="none" stroke="black" cx="272" cy="-107.8" rx="20.6" ry="20.6"/>
<text text-anchor="middle" x="272" y="-104.1" font-family="Helvetica,Arial,sans-serif" font-size="14.00">10</text>
</g>
<!-- 0&#45;&gt;10 -->
<g id="edge12" class="edge">
<title>0&#45;&gt;10</title>
<path fill="none" stroke="black" d="M590.41,-23.6C535.95,-37.83 369.73,-81.26 301.6,-99.06"/>
<polygon fill="black" stroke="black" points="300.7,-95.68 291.91,-101.6 302.47,-102.45 300.7,-95.68"/>
<text text-anchor="middle" x="476.5" y="-57.8" font-family="Helvetica,Arial,sans-serif" font-size="14.00">0/1</text>
</g>
<!-- 9 -->
<g id="node15" class="node">
<title>9</title>
<ellipse fill="none" stroke="black" cx="986" cy="-107.8" rx="18" ry="18"/>
<text text-anchor="middle" x="986" y="-104.1" font-family="Helvetica,Arial,sans-serif" font-size="14.00">9</text>
</g>
<!-- 0&#45;&gt;9 -->
<g id="edge13" class="edge">
<title>0&#45;&gt;9</title>
<path fill="none" stroke="black" d="M625.47,-23.06C685.81,-37.07 885.71,-83.5 958.87,-100.5"/>
<polygon fill="black" stroke="black" points="958.18,-103.93 968.71,-102.78 959.76,-97.11 958.18,-103.93"/>
<text text-anchor="middle" x="829.5" y="-57.8" font-family="Helvetica,Arial,sans-serif" font-size="14.00">0/1</text>
</g>
<!-- 8 -->
<g id="node16" class="node">
<title>8</title>
<ellipse fill="none" stroke="black" cx="146" cy="-107.8" rx="18" ry="18"/>
<text text-anchor="middle" x="146" y="-104.1" font-family="Helvetica,Arial,sans-serif" font-size="14.00">8</text>
</g>
<!-- 0&#45;&gt;8 -->
<g id="edge14" class="edge">
<title>0&#45;&gt;8</title>
<path fill="none" stroke="black" d="M590.45,-22.33C520.27,-35.67 259.44,-85.24 173.59,-101.55"/>
<polygon fill="black" stroke="black" points="172.74,-98.15 163.56,-103.46 174.04,-105.03 172.74,-98.15"/>
<text text-anchor="middle" x="400.5" y="-57.8" font-family="Helvetica,Arial,sans-serif" font-size="14.00">0/1</text>
</g>
<!-- 7 -->
<g id="node17" class="node">
<title>7</title>
<ellipse fill="none" stroke="black" cx="566" cy="-107.8" rx="18" ry="18"/>
<text text-anchor="middle" x="566" y="-104.1" font-family="Helvetica,Arial,sans-serif" font-size="14.00">7</text>
</g>
<!-- 0&#45;&gt;7 -->
<g id="edge15" class="edge">
<title>0&#45;&gt;7</title>
<path fill="none" stroke="black" d="M600.49,-34.7C594.22,-47.81 585.17,-66.73 577.91,-81.91"/>
<polygon fill="black" stroke="black" points="574.6,-80.71 573.44,-91.24 580.92,-83.73 574.6,-80.71"/>
<text text-anchor="middle" x="599.5" y="-57.8" font-family="Helvetica,Arial,sans-serif" font-size="14.00">0/1</text>
</g>
<!-- 16&#45;&gt;5 -->
<g id="edge18" class="edge">
<title>16&#45;&gt;5</title>
<path fill="none" stroke="black" d="M1095.27,-120.46C1073.09,-135.91 1033.86,-163.25 1008.93,-180.62"/>
<polygon fill="black" stroke="black" points="1006.66,-177.93 1000.46,-186.52 1010.66,-183.68 1006.66,-177.93"/>
<text text-anchor="middle" x="1162.5" y="-150.4" font-family="Helvetica,Arial,sans-serif" font-size="14.00">0/1</text>
</g>
<!-- 16&#45;&gt;4 -->
<g id="edge16" class="edge">
<title>16&#45;&gt;4</title>
<path fill="none" stroke="black" d="M1091.43,-112.19C1008.81,-125.8 701,-176.5 606.66,-192.04"/>
<polygon fill="black" stroke="black" points="606.03,-188.6 596.73,-193.68 607.17,-195.5 606.03,-188.6"/>
<text text-anchor="middle" x="1075.5" y="-150.4" font-family="Helvetica,Arial,sans-serif" font-size="14.00">0/1</text>
</g>
<!-- 16&#45;&gt;2 -->
<g id="edge17" class="edge">
<title>16&#45;&gt;2</title>
<path fill="none" stroke="black" d="M1092.32,-114.56C1040.18,-129.82 898.42,-171.3 838.89,-188.73"/>
<polygon fill="black" stroke="black" points="837.71,-185.42 829.1,-191.59 839.68,-192.14 837.71,-185.42"/>
<text text-anchor="middle" x="1120.5" y="-150.4" font-family="Helvetica,Arial,sans-serif" font-size="14.00">1/1</text>
</g>
<!-- 15&#45;&gt;6 -->
<g id="edge20" class="edge">
<title>15&#45;&gt;6</title>
<path fill="none" stroke="black" d="M60.47,-115.4C106.35,-130.95 221.31,-169.92 273.5,-187.61"/>
<polygon fill="black" stroke="black" points="272.46,-190.96 283.06,-190.85 274.71,-184.33 272.46,-190.96"/>
<text text-anchor="middle" x="9.5" y="-150.4" font-family="Helvetica,Arial,sans-serif" font-size="14.00">1/1</text>
</g>
<!-- 15&#45;&gt;3 -->
<g id="edge19" class="edge">
<title>15&#45;&gt;3</title>
<path fill="none" stroke="black" d="M61.31,-112.97C130.96,-127.29 360.25,-174.44 440.2,-190.88"/>
<polygon fill="black" stroke="black" points="439.96,-194.4 450.46,-192.99 441.37,-187.55 439.96,-194.4"/>
<text text-anchor="middle" x="70.5" y="-150.4" font-family="Helvetica,Arial,sans-serif" font-size="14.00">0/1</text>
</g>
<!-- 14&#45;&gt;4 -->
<g id="edge23" class="edge">
<title>14&#45;&gt;4</title>
<path fill="none" stroke="black" d="M416.35,-117.7C449.02,-133.55 517.29,-166.66 554.14,-184.54"/>
<polygon fill="black" stroke="black" points="552.69,-187.73 563.22,-188.94 555.75,-181.43 552.69,-187.73"/>
<text text-anchor="middle" x="387.5" y="-150.4" font-family="Helvetica,Arial,sans-serif" font-size="14.00">0/1</text>
</g>
<!-- 14&#45;&gt;3 -->
<g id="edge21" class="edge">
<title>14&#45;&gt;3</title>
<path fill="none" stroke="black" d="M410.51,-124.49C421.73,-138.56 438.29,-159.33 450.75,-174.97"/>
<polygon fill="black" stroke="black" points="448.23,-177.41 457.2,-183.05 453.7,-173.05 448.23,-177.41"/>
<text text-anchor="middle" x="345.5" y="-150.4" font-family="Helvetica,Arial,sans-serif" font-size="14.00">1/1</text>
</g>
<!-- 14&#45;&gt;2 -->
<g id="edge22" class="edge">
<title>14&#45;&gt;2</title>
<path fill="none" stroke="black" d="M418.25,-113.09C486.31,-127.53 706.95,-174.32 784.63,-190.79"/>
<polygon fill="black" stroke="black" points="784.11,-194.26 794.62,-192.91 785.56,-187.41 784.11,-194.26"/>
<text text-anchor="middle" x="425.5" y="-150.4" font-family="Helvetica,Arial,sans-serif" font-size="14.00">0/1</text>
</g>
<!-- 13&#45;&gt;4 -->
<g id="edge24" class="edge">
<title>13&#45;&gt;4</title>
<path fill="none" stroke="black" d="M675.81,-121.38C656.2,-136.61 623.07,-162.35 601.12,-179.41"/>
<polygon fill="black" stroke="black" points="598.77,-176.8 593.02,-185.7 603.07,-182.33 598.77,-176.8"/>
<text text-anchor="middle" x="700.5" y="-150.4" font-family="Helvetica,Arial,sans-serif" font-size="14.00">1/1</text>
</g>
<!-- 13&#45;&gt;3 -->
<g id="edge25" class="edge">
<title>13&#45;&gt;3</title>
<path fill="none" stroke="black" d="M672.9,-116.28C632.77,-132.01 539.64,-168.52 494.07,-186.38"/>
<polygon fill="black" stroke="black" points="492.62,-183.19 484.58,-190.1 495.17,-189.71 492.62,-183.19"/>
<text text-anchor="middle" x="669.5" y="-150.4" font-family="Helvetica,Arial,sans-serif" font-size="14.00">0/1</text>
</g>
<!-- 13&#45;&gt;2 -->
<g id="edge26" class="edge">
<title>13&#45;&gt;2</title>
<path fill="none" stroke="black" d="M708.69,-121.01C729.7,-136.38 765.89,-162.86 789.38,-180.05"/>
<polygon fill="black" stroke="black" points="787.57,-183.06 797.7,-186.14 791.7,-177.41 787.57,-183.06"/>
<text text-anchor="middle" x="765.5" y="-150.4" font-family="Helvetica,Arial,sans-serif" font-size="14.00">0/1</text>
</g>
<!-- 12&#45;&gt;6 -->
<g id="edge29" class="edge">
<title>12&#45;&gt;6</title>
<path fill="none" stroke="black" d="M818.53,-112.13C735.39,-125.67 422.93,-176.57 327.71,-192.08"/>
<polygon fill="black" stroke="black" points="327.01,-188.65 317.7,-193.71 328.13,-195.56 327.01,-188.65"/>
<text text-anchor="middle" x="801.5" y="-150.4" font-family="Helvetica,Arial,sans-serif" font-size="14.00">0/1</text>
</g>
<!-- 12&#45;&gt;5 -->
<g id="edge28" class="edge">
<title>12&#45;&gt;5</title>
<path fill="none" stroke="black" d="M856.44,-119.21C882.65,-134.87 932.29,-164.52 961.94,-182.22"/>
<polygon fill="black" stroke="black" points="960.42,-185.4 970.8,-187.52 964.01,-179.39 960.42,-185.4"/>
<text text-anchor="middle" x="933.5" y="-150.4" font-family="Helvetica,Arial,sans-serif" font-size="14.00">0/1</text>
</g>
<!-- 12&#45;&gt;4 -->
<g id="edge27" class="edge">
<title>12&#45;&gt;4</title>
<path fill="none" stroke="black" d="M819.46,-115.4C773.4,-130.95 657.99,-169.92 605.61,-187.61"/>
<polygon fill="black" stroke="black" points="604.36,-184.34 596.01,-190.85 606.6,-190.97 604.36,-184.34"/>
<text text-anchor="middle" x="831.5" y="-150.4" font-family="Helvetica,Arial,sans-serif" font-size="14.00">0/1</text>
</g>
<!-- 12&#45;&gt;2 -->
<g id="edge30" class="edge">
<title>12&#45;&gt;2</title>
<path fill="none" stroke="black" d="M833.14,-127.85C829.31,-140.31 824.25,-156.75 820.05,-170.43"/>
<polygon fill="black" stroke="black" points="816.62,-169.65 817.03,-180.24 823.32,-171.71 816.62,-169.65"/>
<text text-anchor="middle" x="868.5" y="-150.4" font-family="Helvetica,Arial,sans-serif" font-size="14.00">0/1</text>
</g>
<!-- 11&#45;&gt;5 -->
<g id="edge33" class="edge">
<title>11&#45;&gt;5</title>
<path fill="none" stroke="black" d="M1218.64,-115.54C1173.9,-131.13 1063.24,-169.69 1012.36,-187.41"/>
<polygon fill="black" stroke="black" points="1011.03,-184.17 1002.74,-190.77 1013.33,-190.78 1011.03,-184.17"/>
<text text-anchor="middle" x="1288.5" y="-150.4" font-family="Helvetica,Arial,sans-serif" font-size="14.00">0/1</text>
</g>
<!-- 11&#45;&gt;4 -->
<g id="edge31" class="edge">
<title>11&#45;&gt;4</title>
<path fill="none" stroke="black" d="M1217.19,-111.57C1120.74,-124.42 717.29,-178.17 606.98,-192.87"/>
<polygon fill="black" stroke="black" points="606.41,-189.41 596.96,-194.2 607.33,-196.35 606.41,-189.41"/>
<text text-anchor="middle" x="1201.5" y="-150.4" font-family="Helvetica,Arial,sans-serif" font-size="14.00">0/1</text>
</g>
<!-- 11&#45;&gt;2 -->
<g id="edge32" class="edge">
<title>11&#45;&gt;2</title>
<path fill="none" stroke="black" d="M1217.74,-112.97C1148.25,-127.29 919.5,-174.44 839.73,-190.88"/>
<polygon fill="black" stroke="black" points="838.59,-187.54 829.5,-192.99 840,-194.4 838.59,-187.54"/>
<text text-anchor="middle" x="1246.5" y="-150.4" font-family="Helvetica,Arial,sans-serif" font-size="14.00">0/1</text>
</g>
<!-- 10&#45;&gt;6 -->
<g id="edge34" class="edge">
<title>10&#45;&gt;6</title>
<path fill="none" stroke="black" d="M278.08,-127.85C282.05,-140.31 287.29,-156.75 291.65,-170.43"/>
<polygon fill="black" stroke="black" points="288.41,-171.77 294.78,-180.24 295.08,-169.65 288.41,-171.77"/>
<text text-anchor="middle" x="219.5" y="-150.4" font-family="Helvetica,Arial,sans-serif" font-size="14.00">0/1</text>
</g>
<!-- 10&#45;&gt;4 -->
<g id="edge36" class="edge">
<title>10&#45;&gt;4</title>
<path fill="none" stroke="black" d="M292.14,-114.56C345.63,-129.85 491.24,-171.5 551.91,-188.85"/>
<polygon fill="black" stroke="black" points="551.3,-192.32 561.88,-191.7 553.23,-185.58 551.3,-192.32"/>
<text text-anchor="middle" x="322.5" y="-150.4" font-family="Helvetica,Arial,sans-serif" font-size="14.00">0/1</text>
</g>
<!-- 10&#45;&gt;3 -->
<g id="edge35" class="edge">
<title>10&#45;&gt;3</title>
<path fill="none" stroke="black" d="M290.79,-117.22C326.13,-133.04 402.48,-167.25 442.44,-185.15"/>
<polygon fill="black" stroke="black" points="441.22,-188.43 451.77,-189.33 444.08,-182.05 441.22,-188.43"/>
<text text-anchor="middle" x="261.5" y="-150.4" font-family="Helvetica,Arial,sans-serif" font-size="14.00">0/1</text>
</g>
<!-- 9&#45;&gt;5 -->
<g id="edge39" class="edge">
<title>9&#45;&gt;5</title>
<path fill="none" stroke="black" d="M986,-126.14C986,-138.49 986,-155.32 986,-169.44"/>
<polygon fill="black" stroke="black" points="982.5,-169.58 986,-179.59 989.5,-169.59 982.5,-169.58"/>
<text text-anchor="middle" x="1036.5" y="-150.4" font-family="Helvetica,Arial,sans-serif" font-size="14.00">0/1</text>
</g>
<!-- 9&#45;&gt;3 -->
<g id="edge37" class="edge">
<title>9&#45;&gt;3</title>
<path fill="none" stroke="black" d="M968.17,-111.82C891.51,-124.81 589.57,-175.99 495.88,-191.87"/>
<polygon fill="black" stroke="black" points="495.03,-188.46 485.76,-193.59 496.2,-195.37 495.03,-188.46"/>
<text text-anchor="middle" x="963.5" y="-150.4" font-family="Helvetica,Arial,sans-serif" font-size="14.00">0/1</text>
</g>
<!-- 9&#45;&gt;2 -->
<g id="edge38" class="edge">
<title>9&#45;&gt;2</title>
<path fill="none" stroke="black" d="M970.25,-116.74C939.92,-132.05 873.18,-165.73 836.81,-184.08"/>
<polygon fill="black" stroke="black" points="835.19,-180.97 827.84,-188.6 838.34,-187.22 835.19,-180.97"/>
<text text-anchor="middle" x="994.5" y="-150.4" font-family="Helvetica,Arial,sans-serif" font-size="14.00">0/1</text>
</g>
<!-- 8&#45;&gt;6 -->
<g id="edge42" class="edge">
<title>8&#45;&gt;6</title>
<path fill="none" stroke="black" d="M161.33,-117.54C188.2,-132.85 243.97,-164.65 275.99,-182.91"/>
<polygon fill="black" stroke="black" points="274.31,-185.98 284.73,-187.89 277.78,-179.9 274.31,-185.98"/>
<text text-anchor="middle" x="93.5" y="-150.4" font-family="Helvetica,Arial,sans-serif" font-size="14.00">0/1</text>
</g>
<!-- 8&#45;&gt;4 -->
<g id="edge40" class="edge">
<title>8&#45;&gt;4</title>
<path fill="none" stroke="black" d="M163.51,-112.35C230.29,-125.89 469.3,-174.35 551.22,-190.96"/>
<polygon fill="black" stroke="black" points="550.78,-194.44 561.27,-193 552.17,-187.58 550.78,-194.44"/>
<text text-anchor="middle" x="196.5" y="-150.4" font-family="Helvetica,Arial,sans-serif" font-size="14.00">0/1</text>
</g>
<!-- 8&#45;&gt;3 -->
<g id="edge41" class="edge">
<title>8&#45;&gt;3</title>
<path fill="none" stroke="black" d="M163.31,-113.52C216.27,-127.96 376.41,-171.62 440.78,-189.17"/>
<polygon fill="black" stroke="black" points="440.03,-192.6 450.6,-191.85 441.88,-185.85 440.03,-192.6"/>
<text text-anchor="middle" x="135.5" y="-150.4" font-family="Helvetica,Arial,sans-serif" font-size="14.00">0/1</text>
</g>
<!-- 7&#45;&gt;6 -->
<g id="edge47" class="edge">
<title>7&#45;&gt;6</title>
<path fill="none" stroke="black" d="M548.96,-114.42C503.82,-129.32 380.94,-169.88 326.53,-187.84"/>
<polygon fill="black" stroke="black" points="325.3,-184.56 316.9,-191.02 327.5,-191.21 325.3,-184.56"/>
<text text-anchor="middle" x="482.5" y="-150.4" font-family="Helvetica,Arial,sans-serif" font-size="14.00">0/1</text>
</g>
<!-- 7&#45;&gt;5 -->
<g id="edge44" class="edge">
<title>7&#45;&gt;5</title>
<path fill="none" stroke="black" d="M583.51,-112.46C648.89,-126.13 878.98,-174.22 958.62,-190.87"/>
<polygon fill="black" stroke="black" points="957.91,-194.3 968.41,-192.92 959.34,-187.45 957.91,-194.3"/>
<text text-anchor="middle" x="635.5" y="-150.4" font-family="Helvetica,Arial,sans-serif" font-size="14.00">0/1</text>
</g>
<!-- 7&#45;&gt;4 -->
<g id="edge43" class="edge">
<title>7&#45;&gt;4</title>
<path fill="none" stroke="black" d="M568.51,-125.73C570.34,-138.12 572.87,-155.18 574.98,-169.47"/>
<polygon fill="black" stroke="black" points="571.57,-170.34 576.5,-179.72 578.5,-169.32 571.57,-170.34"/>
<text text-anchor="middle" x="555.5" y="-150.4" font-family="Helvetica,Arial,sans-serif" font-size="14.00">0/1</text>
</g>
<!-- 7&#45;&gt;3 -->
<g id="edge46" class="edge">
<title>7&#45;&gt;3</title>
<path fill="none" stroke="black" d="M552.78,-120.64C536.33,-135.38 508.03,-160.74 488.69,-178.06"/>
<polygon fill="black" stroke="black" points="486.12,-175.66 481.01,-184.94 490.79,-180.88 486.12,-175.66"/>
<text text-anchor="middle" x="532.5" y="-150.4" font-family="Helvetica,Arial,sans-serif" font-size="14.00">0/1</text>
</g>
<!-- 7&#45;&gt;2 -->
<g id="edge45" class="edge">
<title>7&#45;&gt;2</title>
<path fill="none" stroke="black" d="M582.91,-114.83C625.05,-129.87 735.01,-169.12 785.71,-187.21"/>
<polygon fill="black" stroke="black" points="784.7,-190.57 795.3,-190.64 787.06,-183.98 784.7,-190.57"/>
<text text-anchor="middle" x="597.5" y="-150.4" font-family="Helvetica,Arial,sans-serif" font-size="14.00">0/1</text>
</g>
</g>
</svg>
