<?xml version="1.0" encoding="UTF-8" standalone="no"?>
<!DOCTYPE svg PUBLIC "-//W3C//DTD SVG 1.1//EN"
 "http://www.w3.org/Graphics/SVG/1.1/DTD/svg11.dtd">
<!-- Generated by graphviz version 2.43.0 (0)
 -->
<!-- Title: exported_graph Pages: 1 -->
<svg width="274pt" height="479pt"
 viewBox="0.00 0.00 274.00 479.00" xmlns="http://www.w3.org/2000/svg" xmlns:xlink="http://www.w3.org/1999/xlink">
<g id="graph0" class="graph" transform="scale(1 1) rotate(0) translate(4 475)">
<title>exported_graph</title>
<polygon fill="white" stroke="transparent" points="-4,4 -4,-475 270,-475 270,4 -4,4"/>
<!-- 3 -->
<g id="node1" class="node">
<title>3</title>
<ellipse fill="none" stroke="black" cx="138" cy="-18" rx="18" ry="18"/>
<text text-anchor="middle" x="138" y="-14.3" font-family="Helvetica,Arial,sans-serif" font-size="14.00">3</text>
</g>
<!-- 0 -->
<g id="node2" class="node">
<title>0</title>
<ellipse fill="none" stroke="black" cx="56" cy="-105" rx="18" ry="18"/>
<text text-anchor="middle" x="56" y="-101.3" font-family="Helvetica,Arial,sans-serif" font-size="14.00">0</text>
</g>
<!-- 3&#45;&gt;0 -->
<g id="edge1" class="edge">
<title>3&#45;&gt;0</title>
<path fill="none" stroke="black" d="M125.9,-31.54C112.58,-45.35 90.97,-67.75 75.3,-83.99"/>
<polygon fill="black" stroke="black" points="72.57,-81.78 68.15,-91.41 77.61,-86.64 72.57,-81.78"/>
<text text-anchor="middle" x="51.5" y="-57.8" font-family="Helvetica,Arial,sans-serif" font-size="14.00">0/3</text>
</g>
<!-- 2 -->
<g id="node3" class="node">
<title>2</title>
<ellipse fill="none" stroke="black" cx="105" cy="-279" rx="18" ry="18"/>
<text text-anchor="middle" x="105" y="-275.3" font-family="Helvetica,Arial,sans-serif" font-size="14.00">2</text>
</g>
<!-- 3&#45;&gt;2 -->
<g id="edge2" class="edge">
<title>3&#45;&gt;2</title>
<path fill="none" stroke="black" d="M141.05,-35.89C146.88,-70 159,-141 159,-141 159,-141 130.99,-212.58 115.32,-252.64"/>
<polygon fill="black" stroke="black" points="112.01,-251.49 111.62,-262.08 118.52,-254.04 112.01,-251.49"/>
<text text-anchor="middle" x="168.5" y="-144.8" font-family="Helvetica,Arial,sans-serif" font-size="14.00">0/6</text>
</g>
<!-- 4 -->
<g id="node4" class="node">
<title>4</title>
<ellipse fill="none" stroke="black" cx="163" cy="-453" rx="18" ry="18"/>
<text text-anchor="middle" x="163" y="-449.3" font-family="Helvetica,Arial,sans-serif" font-size="14.00">4</text>
</g>
<!-- 3&#45;&gt;4 -->
<g id="edge3" class="edge">
<title>3&#45;&gt;4</title>
<path fill="none" stroke="black" d="M142.93,-35.54C157.11,-86.01 197,-228 197,-228 197,-228 176.35,-364.67 167.23,-424.98"/>
<polygon fill="black" stroke="black" points="163.76,-424.56 165.72,-434.97 170.68,-425.6 163.76,-424.56"/>
<text text-anchor="middle" x="210.5" y="-231.8" font-family="Helvetica,Arial,sans-serif" font-size="14.00">7/10</text>
</g>
<!-- 0&#45;&gt;3 -->
<g id="edge14" class="edge">
<title>0&#45;&gt;3</title>
<path fill="none" stroke="black" d="M68.15,-91.41C81.49,-77.57 103.1,-55.17 118.76,-38.95"/>
<polygon fill="black" stroke="black" points="121.48,-41.17 125.9,-31.54 116.44,-36.31 121.48,-41.17"/>
<text text-anchor="middle" x="93.5" y="-57.8" font-family="Helvetica,Arial,sans-serif" font-size="14.00">4/4</text>
</g>
<!-- 1 -->
<g id="node6" class="node">
<title>1</title>
<ellipse fill="none" stroke="black" cx="33" cy="-192" rx="18" ry="18"/>
<text text-anchor="middle" x="33" y="-188.3" font-family="Helvetica,Arial,sans-serif" font-size="14.00">1</text>
</g>
<!-- 0&#45;&gt;1 -->
<g id="edge15" class="edge">
<title>0&#45;&gt;1</title>
<path fill="none" stroke="black" d="M51.46,-122.79C48.22,-134.75 43.81,-151.04 40.11,-164.71"/>
<polygon fill="black" stroke="black" points="36.69,-163.96 37.46,-174.53 43.45,-165.79 36.69,-163.96"/>
<text text-anchor="middle" x="26.5" y="-144.8" font-family="Helvetica,Arial,sans-serif" font-size="14.00">7/15</text>
</g>
<!-- 2&#45;&gt;3 -->
<g id="edge12" class="edge">
<title>2&#45;&gt;3</title>
<path fill="none" stroke="black" d="M106.57,-260.96C109.82,-223.55 117,-141 117,-141 117,-141 127.04,-82.18 133.24,-45.89"/>
<polygon fill="black" stroke="black" points="136.71,-46.33 134.95,-35.89 129.81,-45.15 136.71,-46.33"/>
<text text-anchor="middle" x="126.5" y="-144.8" font-family="Helvetica,Arial,sans-serif" font-size="14.00">3/3</text>
</g>
<!-- 5 -->
<g id="node5" class="node">
<title>5</title>
<ellipse fill="none" stroke="black" cx="134" cy="-366" rx="18" ry="18"/>
<text text-anchor="middle" x="134" y="-362.3" font-family="Helvetica,Arial,sans-serif" font-size="14.00">5</text>
</g>
<!-- 2&#45;&gt;5 -->
<g id="edge13" class="edge">
<title>2&#45;&gt;5</title>
<path fill="none" stroke="black" d="M110.59,-296.39C114.72,-308.5 120.43,-325.23 125.18,-339.14"/>
<polygon fill="black" stroke="black" points="121.88,-340.33 128.43,-348.66 128.51,-338.07 121.88,-340.33"/>
<text text-anchor="middle" x="105.5" y="-318.8" font-family="Helvetica,Arial,sans-serif" font-size="14.00">4/7</text>
</g>
<!-- 2&#45;&gt;1 -->
<g id="edge11" class="edge">
<title>2&#45;&gt;1</title>
<path fill="none" stroke="black" d="M93.83,-264.81C82.34,-251.25 64.27,-229.92 50.81,-214.03"/>
<polygon fill="black" stroke="black" points="53.38,-211.65 44.25,-206.28 48.04,-216.17 53.38,-211.65"/>
<text text-anchor="middle" x="50.5" y="-231.8" font-family="Helvetica,Arial,sans-serif" font-size="14.00">0/6</text>
</g>
<!-- 4&#45;&gt;3 -->
<g id="edge6" class="edge">
<title>4&#45;&gt;3</title>
<path fill="none" stroke="black" d="M169.31,-436.09C188.85,-383.76 247,-228 247,-228 247,-228 179.89,-98.7 150.98,-43.02"/>
<polygon fill="black" stroke="black" points="154.09,-41.39 146.37,-34.13 147.87,-44.62 154.09,-41.39"/>
<text text-anchor="middle" x="256.5" y="-231.8" font-family="Helvetica,Arial,sans-serif" font-size="14.00">0/6</text>
</g>
<!-- 4&#45;&gt;5 -->
<g id="edge8" class="edge">
<title>4&#45;&gt;5</title>
<path fill="none" stroke="black" d="M157.43,-435.66C153.3,-423.56 147.59,-406.83 142.84,-392.92"/>
<polygon fill="black" stroke="black" points="146.13,-391.72 139.59,-383.39 139.51,-393.98 146.13,-391.72"/>
<text text-anchor="middle" x="128.5" y="-405.8" font-family="Helvetica,Arial,sans-serif" font-size="14.00">7/10</text>
</g>
<!-- 4&#45;&gt;1 -->
<g id="edge7" class="edge">
<title>4&#45;&gt;1</title>
<path fill="none" stroke="black" d="M149.19,-441.21C113.15,-410.42 19,-330 19,-330 19,-330 26.06,-260.44 30.15,-220.09"/>
<polygon fill="black" stroke="black" points="33.64,-220.34 31.17,-210.04 26.68,-219.64 33.64,-220.34"/>
<text text-anchor="middle" x="9.5" y="-318.8" font-family="Helvetica,Arial,sans-serif" font-size="14.00">0/5</text>
</g>
<!-- 5&#45;&gt;2 -->
<g id="edge4" class="edge">
<title>5&#45;&gt;2</title>
<path fill="none" stroke="black" d="M128.43,-348.66C124.3,-336.56 118.59,-319.83 113.84,-305.92"/>
<polygon fill="black" stroke="black" points="117.13,-304.72 110.59,-296.39 110.51,-306.98 117.13,-304.72"/>
<text text-anchor="middle" x="132.5" y="-318.8" font-family="Helvetica,Arial,sans-serif" font-size="14.00">0/3</text>
</g>
<!-- 5&#45;&gt;4 -->
<g id="edge5" class="edge">
<title>5&#45;&gt;4</title>
<path fill="none" stroke="black" d="M139.59,-383.39C143.72,-395.5 149.43,-412.23 154.18,-426.14"/>
<polygon fill="black" stroke="black" points="150.88,-427.33 157.43,-435.66 157.51,-425.07 150.88,-427.33"/>
<text text-anchor="middle" x="159.5" y="-405.8" font-family="Helvetica,Arial,sans-serif" font-size="14.00">0/5</text>
</g>
<!-- 1&#45;&gt;0 -->
<g id="edge9" class="edge">
<title>1&#45;&gt;0</title>
<path fill="none" stroke="black" d="M37.46,-174.53C40.67,-162.66 45.07,-146.38 48.78,-132.66"/>
<polygon fill="black" stroke="black" points="52.22,-133.36 51.46,-122.79 45.47,-131.53 52.22,-133.36"/>
<text text-anchor="middle" x="57.5" y="-144.8" font-family="Helvetica,Arial,sans-serif" font-size="14.00">0/4</text>
</g>
<!-- 1&#45;&gt;2 -->
<g id="edge10" class="edge">
<title>1&#45;&gt;2</title>
<path fill="none" stroke="black" d="M44.25,-206.28C55.77,-219.88 73.84,-241.21 87.28,-257.08"/>
<polygon fill="black" stroke="black" points="84.69,-259.44 93.83,-264.81 90.04,-254.92 84.69,-259.44"/>
<text text-anchor="middle" x="86.5" y="-231.8" font-family="Helvetica,Arial,sans-serif" font-size="14.00">7/12</text>
</g>
</g>
</svg>
