<?xml version="1.0" encoding="UTF-8" standalone="no"?>
<!DOCTYPE svg PUBLIC "-//W3C//DTD SVG 1.1//EN"
 "http://www.w3.org/Graphics/SVG/1.1/DTD/svg11.dtd">
<!-- Generated by graphviz version 2.43.0 (0)
 -->
<!-- Title: exported_graph Pages: 1 -->
<svg width="201pt" height="305pt"
 viewBox="0.00 0.00 201.00 305.00" xmlns="http://www.w3.org/2000/svg" xmlns:xlink="http://www.w3.org/1999/xlink">
<g id="graph0" class="graph" transform="scale(1 1) rotate(0) translate(4 301)">
<title>exported_graph</title>
<polygon fill="white" stroke="transparent" points="-4,4 -4,-301 197,-301 197,4 -4,4"/>
<!-- 4 -->
<g id="node1" class="node">
<title>4</title>
<ellipse fill="none" stroke="black" cx="50" cy="-18" rx="18" ry="18"/>
<text text-anchor="middle" x="50" y="-14.3" font-family="Helvetica,Arial,sans-serif" font-size="14.00">4</text>
</g>
<!-- 1 -->
<g id="node2" class="node">
<title>1</title>
<ellipse fill="none" stroke="black" cx="109" cy="-105" rx="18" ry="18"/>
<text text-anchor="middle" x="109" y="-101.3" font-family="Helvetica,Arial,sans-serif" font-size="14.00">1</text>
</g>
<!-- 4&#45;&gt;1 -->
<g id="edge1" class="edge">
<title>4&#45;&gt;1</title>
<path fill="none" stroke="black" d="M60.01,-33.42C69.13,-46.56 82.76,-66.2 93.33,-81.42"/>
<polygon fill="black" stroke="black" points="90.56,-83.57 99.14,-89.79 96.31,-79.58 90.56,-83.57"/>
<text text-anchor="middle" x="92.5" y="-57.8" font-family="Helvetica,Arial,sans-serif" font-size="14.00">0/5</text>
</g>
<!-- 5 -->
<g id="node3" class="node">
<title>5</title>
<ellipse fill="none" stroke="black" cx="36" cy="-279" rx="18" ry="18"/>
<text text-anchor="middle" x="36" y="-275.3" font-family="Helvetica,Arial,sans-serif" font-size="14.00">5</text>
</g>
<!-- 4&#45;&gt;5 -->
<g id="edge2" class="edge">
<title>4&#45;&gt;5</title>
<path fill="none" stroke="black" d="M47.04,-35.76C40.83,-73.03 27,-156 27,-156 27,-156 31.28,-214.51 33.94,-250.82"/>
<polygon fill="black" stroke="black" points="30.45,-251.13 34.67,-260.85 37.43,-250.62 30.45,-251.13"/>
<text text-anchor="middle" x="13.5" y="-144.8" font-family="Helvetica,Arial,sans-serif" font-size="14.00">7/10</text>
</g>
<!-- 2 -->
<g id="node4" class="node">
<title>2</title>
<ellipse fill="none" stroke="black" cx="109" cy="-192" rx="18" ry="18"/>
<text text-anchor="middle" x="109" y="-188.3" font-family="Helvetica,Arial,sans-serif" font-size="14.00">2</text>
</g>
<!-- 1&#45;&gt;2 -->
<g id="edge8" class="edge">
<title>1&#45;&gt;2</title>
<path fill="none" stroke="black" d="M109,-123.2C109,-134.84 109,-150.45 109,-163.76"/>
<polygon fill="black" stroke="black" points="105.5,-163.82 109,-173.82 112.5,-163.82 105.5,-163.82"/>
<text text-anchor="middle" x="126" y="-144.8" font-family="Helvetica,Arial,sans-serif" font-size="14.00">10/12</text>
</g>
<!-- 2&#45;&gt;5 -->
<g id="edge4" class="edge">
<title>2&#45;&gt;5</title>
<path fill="none" stroke="black" d="M97.59,-206.28C85.92,-219.88 67.59,-241.21 53.97,-257.08"/>
<polygon fill="black" stroke="black" points="51.19,-254.95 47.33,-264.81 56.5,-259.51 51.19,-254.95"/>
<text text-anchor="middle" x="85.5" y="-231.8" font-family="Helvetica,Arial,sans-serif" font-size="14.00">7/7</text>
</g>
<!-- 3 -->
<g id="node5" class="node">
<title>3</title>
<ellipse fill="none" stroke="black" cx="125" cy="-279" rx="18" ry="18"/>
<text text-anchor="middle" x="125" y="-275.3" font-family="Helvetica,Arial,sans-serif" font-size="14.00">3</text>
</g>
<!-- 2&#45;&gt;3 -->
<g id="edge3" class="edge">
<title>2&#45;&gt;3</title>
<path fill="none" stroke="black" d="M112.16,-209.79C114.37,-221.55 117.38,-237.52 119.93,-251.04"/>
<polygon fill="black" stroke="black" points="116.56,-252.06 121.85,-261.24 123.44,-250.77 116.56,-252.06"/>
<text text-anchor="middle" x="126.5" y="-231.8" font-family="Helvetica,Arial,sans-serif" font-size="14.00">3/3</text>
</g>
<!-- 3&#45;&gt;4 -->
<g id="edge5" class="edge">
<title>3&#45;&gt;4</title>
<path fill="none" stroke="black" d="M118.43,-262.16C105.28,-228.47 77,-156 77,-156 77,-156 63.32,-86.08 55.44,-45.78"/>
<polygon fill="black" stroke="black" points="58.83,-44.9 53.47,-35.76 51.96,-46.24 58.83,-44.9"/>
<text text-anchor="middle" x="63.5" y="-144.8" font-family="Helvetica,Arial,sans-serif" font-size="14.00">7/10</text>
</g>
<!-- 0 -->
<g id="node6" class="node">
<title>0</title>
<ellipse fill="none" stroke="black" cx="149" cy="-18" rx="18" ry="18"/>
<text text-anchor="middle" x="149" y="-14.3" font-family="Helvetica,Arial,sans-serif" font-size="14.00">0</text>
</g>
<!-- 0&#45;&gt;1 -->
<g id="edge7" class="edge">
<title>0&#45;&gt;1</title>
<path fill="none" stroke="black" d="M141.66,-34.59C135.8,-47.05 127.47,-64.76 120.69,-79.16"/>
<polygon fill="black" stroke="black" points="117.38,-77.97 116.29,-88.51 123.71,-80.95 117.38,-77.97"/>
<text text-anchor="middle" x="143" y="-57.8" font-family="Helvetica,Arial,sans-serif" font-size="14.00">10/15</text>
</g>
<!-- 0&#45;&gt;3 -->
<g id="edge6" class="edge">
<title>0&#45;&gt;3</title>
<path fill="none" stroke="black" d="M152.64,-35.89C159.57,-70 174,-141 174,-141 174,-141 148.71,-212.22 134.47,-252.34"/>
<polygon fill="black" stroke="black" points="131.15,-251.21 131.11,-261.8 137.75,-253.55 131.15,-251.21"/>
<text text-anchor="middle" x="183.5" y="-144.8" font-family="Helvetica,Arial,sans-serif" font-size="14.00">4/4</text>
</g>
</g>
</svg>
