<?xml version="1.0" encoding="UTF-8" standalone="no"?>
<!DOCTYPE svg PUBLIC "-//W3C//DTD SVG 1.1//EN"
 "http://www.w3.org/Graphics/SVG/1.1/DTD/svg11.dtd">
<!-- Generated by graphviz version 2.43.0 (0)
 -->
<!-- Title: exported_graph Pages: 1 -->
<svg width="302pt" height="604pt"
 viewBox="0.00 0.00 302.00 603.79" xmlns="http://www.w3.org/2000/svg" xmlns:xlink="http://www.w3.org/1999/xlink">
<g id="graph0" class="graph" transform="scale(1 1) rotate(0) translate(4 599.79)">
<title>exported_graph</title>
<polygon fill="white" stroke="transparent" points="-4,4 -4,-599.79 298,-599.79 298,4 -4,4"/>
<!-- 7 -->
<g id="node1" class="node">
<title>7</title>
<ellipse fill="none" stroke="black" cx="228" cy="-302.8" rx="18" ry="18"/>
<text text-anchor="middle" x="228" y="-299.1" font-family="Helvetica,Arial,sans-serif" font-size="14.00">7</text>
</g>
<!-- 10 -->
<g id="node2" class="node">
<title>10</title>
<ellipse fill="none" stroke="black" cx="182" cy="-482.39" rx="20.6" ry="20.6"/>
<text text-anchor="middle" x="182" y="-478.69" font-family="Helvetica,Arial,sans-serif" font-size="14.00">10</text>
</g>
<!-- 7&#45;&gt;10 -->
<g id="edge1" class="edge">
<title>7&#45;&gt;10</title>
<path fill="none" stroke="black" d="M228,-321.06C228,-345.31 228,-385.1 228,-385.1 228,-385.1 209.03,-425.23 195.45,-453.95"/>
<polygon fill="black" stroke="black" points="192.2,-452.63 191.09,-463.17 198.53,-455.63 192.2,-452.63"/>
<text text-anchor="middle" x="237.5" y="-388.9" font-family="Helvetica,Arial,sans-serif" font-size="14.00">0/1</text>
</g>
<!-- 12 -->
<g id="node3" class="node">
<title>12</title>
<ellipse fill="none" stroke="black" cx="229" cy="-574.99" rx="20.6" ry="20.6"/>
<text text-anchor="middle" x="229" y="-571.29" font-family="Helvetica,Arial,sans-serif" font-size="14.00">12</text>
</g>
<!-- 7&#45;&gt;12 -->
<g id="edge2" class="edge">
<title>7&#45;&gt;12</title>
<path fill="none" stroke="black" d="M234.34,-319.76C247.17,-354.1 275,-428.6 275,-428.6 275,-428.6 251.77,-502.52 238.33,-545.31"/>
<polygon fill="black" stroke="black" points="234.96,-544.35 235.3,-554.94 241.64,-546.45 234.96,-544.35"/>
<text text-anchor="middle" x="284.5" y="-432.4" font-family="Helvetica,Arial,sans-serif" font-size="14.00">1/2</text>
</g>
<!-- 10&#45;&gt;12 -->
<g id="edge11" class="edge">
<title>10&#45;&gt;12</title>
<path fill="none" stroke="black" d="M191.29,-501.29C198.04,-514.32 207.32,-532.2 214.98,-546.96"/>
<polygon fill="black" stroke="black" points="212.02,-548.86 219.73,-556.13 218.24,-545.64 212.02,-548.86"/>
<text text-anchor="middle" x="217.5" y="-524.99" font-family="Helvetica,Arial,sans-serif" font-size="14.00">3/6</text>
</g>
<!-- 5 -->
<g id="node4" class="node">
<title>5</title>
<ellipse fill="none" stroke="black" cx="204" cy="-192" rx="18" ry="18"/>
<text text-anchor="middle" x="204" y="-188.3" font-family="Helvetica,Arial,sans-serif" font-size="14.00">5</text>
</g>
<!-- 5&#45;&gt;7 -->
<g id="edge3" class="edge">
<title>5&#45;&gt;7</title>
<path fill="none" stroke="black" d="M207.75,-210C211.59,-227.41 217.61,-254.71 222.09,-275.02"/>
<polygon fill="black" stroke="black" points="218.7,-275.91 224.28,-284.92 225.54,-274.4 218.7,-275.91"/>
<text text-anchor="middle" x="228.5" y="-242.3" font-family="Helvetica,Arial,sans-serif" font-size="14.00">1/1</text>
</g>
<!-- 5&#45;&gt;10 -->
<g id="edge4" class="edge">
<title>5&#45;&gt;10</title>
<path fill="none" stroke="black" d="M203.67,-210.24C202.89,-253.1 201,-356.6 201,-356.6 201,-356.6 192.26,-414.49 186.63,-451.73"/>
<polygon fill="black" stroke="black" points="183.17,-451.21 185.14,-461.62 190.09,-452.26 183.17,-451.21"/>
<text text-anchor="middle" x="191.5" y="-345.4" font-family="Helvetica,Arial,sans-serif" font-size="14.00">1/1</text>
</g>
<!-- 9 -->
<g id="node5" class="node">
<title>9</title>
<ellipse fill="none" stroke="black" cx="92" cy="-392.6" rx="18" ry="18"/>
<text text-anchor="middle" x="92" y="-388.9" font-family="Helvetica,Arial,sans-serif" font-size="14.00">9</text>
</g>
<!-- 9&#45;&gt;10 -->
<g id="edge5" class="edge">
<title>9&#45;&gt;10</title>
<path fill="none" stroke="black" d="M104.51,-405.8C118.84,-419.78 142.57,-442.93 160,-459.93"/>
<polygon fill="black" stroke="black" points="157.91,-462.78 167.51,-467.26 162.79,-457.77 157.91,-462.78"/>
<text text-anchor="middle" x="116.5" y="-432.4" font-family="Helvetica,Arial,sans-serif" font-size="14.00">2/4</text>
</g>
<!-- 11 -->
<g id="node6" class="node">
<title>11</title>
<ellipse fill="none" stroke="black" cx="34" cy="-302.8" rx="20.6" ry="20.6"/>
<text text-anchor="middle" x="34" y="-299.1" font-family="Helvetica,Arial,sans-serif" font-size="14.00">11</text>
</g>
<!-- 11&#45;&gt;9 -->
<g id="edge6" class="edge">
<title>11&#45;&gt;9</title>
<path fill="none" stroke="black" d="M45.18,-320.73C54.12,-334.26 66.76,-353.38 76.64,-368.35"/>
<polygon fill="black" stroke="black" points="73.96,-370.63 82.39,-377.05 79.8,-366.78 73.96,-370.63"/>
<text text-anchor="middle" x="68.5" y="-345.4" font-family="Helvetica,Arial,sans-serif" font-size="14.00">2/2</text>
</g>
<!-- 8 -->
<g id="node7" class="node">
<title>8</title>
<ellipse fill="none" stroke="black" cx="18" cy="-192" rx="18" ry="18"/>
<text text-anchor="middle" x="18" y="-188.3" font-family="Helvetica,Arial,sans-serif" font-size="14.00">8</text>
</g>
<!-- 8&#45;&gt;11 -->
<g id="edge7" class="edge">
<title>8&#45;&gt;11</title>
<path fill="none" stroke="black" d="M20.5,-210C22.93,-226.51 26.67,-251.94 29.6,-271.85"/>
<polygon fill="black" stroke="black" points="26.17,-272.59 31.08,-281.97 33.09,-271.57 26.17,-272.59"/>
<text text-anchor="middle" x="38.5" y="-242.3" font-family="Helvetica,Arial,sans-serif" font-size="14.00">2/2</text>
</g>
<!-- 6 -->
<g id="node8" class="node">
<title>6</title>
<ellipse fill="none" stroke="black" cx="92" cy="-192" rx="18" ry="18"/>
<text text-anchor="middle" x="92" y="-188.3" font-family="Helvetica,Arial,sans-serif" font-size="14.00">6</text>
</g>
<!-- 6&#45;&gt;9 -->
<g id="edge8" class="edge">
<title>6&#45;&gt;9</title>
<path fill="none" stroke="black" d="M92,-210.47C92,-240.18 92,-295.3 92,-295.3 92,-295.3 92,-335.25 92,-363.95"/>
<polygon fill="black" stroke="black" points="88.5,-364.3 92,-374.3 95.5,-364.3 88.5,-364.3"/>
<text text-anchor="middle" x="101.5" y="-299.1" font-family="Helvetica,Arial,sans-serif" font-size="14.00">0/2</text>
</g>
<!-- 3 -->
<g id="node9" class="node">
<title>3</title>
<ellipse fill="none" stroke="black" cx="57" cy="-105" rx="18" ry="18"/>
<text text-anchor="middle" x="57" y="-101.3" font-family="Helvetica,Arial,sans-serif" font-size="14.00">3</text>
</g>
<!-- 3&#45;&gt;8 -->
<g id="edge9" class="edge">
<title>3&#45;&gt;8</title>
<path fill="none" stroke="black" d="M49.85,-121.59C44.17,-133.97 36.11,-151.53 29.52,-165.89"/>
<polygon fill="black" stroke="black" points="26.23,-164.67 25.24,-175.22 32.59,-167.59 26.23,-164.67"/>
<text text-anchor="middle" x="44.5" y="-144.8" font-family="Helvetica,Arial,sans-serif" font-size="14.00">2/2</text>
</g>
<!-- 3&#45;&gt;6 -->
<g id="edge10" class="edge">
<title>3&#45;&gt;6</title>
<path fill="none" stroke="black" d="M63.58,-121.99C68.62,-134.22 75.66,-151.32 81.48,-165.44"/>
<polygon fill="black" stroke="black" points="78.4,-167.17 85.45,-175.08 84.88,-164.5 78.4,-167.17"/>
<text text-anchor="middle" x="67.5" y="-144.8" font-family="Helvetica,Arial,sans-serif" font-size="14.00">0/2</text>
</g>
<!-- 2 -->
<g id="node10" class="node">
<title>2</title>
<ellipse fill="none" stroke="black" cx="210" cy="-105" rx="18" ry="18"/>
<text text-anchor="middle" x="210" y="-101.3" font-family="Helvetica,Arial,sans-serif" font-size="14.00">2</text>
</g>
<!-- 2&#45;&gt;5 -->
<g id="edge12" class="edge">
<title>2&#45;&gt;5</title>
<path fill="none" stroke="black" d="M208.79,-123.2C207.96,-134.84 206.86,-150.45 205.92,-163.76"/>
<polygon fill="black" stroke="black" points="202.43,-163.6 205.21,-173.82 209.41,-164.1 202.43,-163.6"/>
<text text-anchor="middle" x="216.5" y="-144.8" font-family="Helvetica,Arial,sans-serif" font-size="14.00">1/2</text>
</g>
<!-- 4 -->
<g id="node11" class="node">
<title>4</title>
<ellipse fill="none" stroke="black" cx="140" cy="-246" rx="18" ry="18"/>
<text text-anchor="middle" x="140" y="-242.3" font-family="Helvetica,Arial,sans-serif" font-size="14.00">4</text>
</g>
<!-- 4&#45;&gt;10 -->
<g id="edge13" class="edge">
<title>4&#45;&gt;10</title>
<path fill="none" stroke="black" d="M143.05,-263.77C148.42,-295.03 159,-356.6 159,-356.6 159,-356.6 169.64,-414.8 176.45,-452.02"/>
<polygon fill="black" stroke="black" points="173.01,-452.7 178.25,-461.9 179.9,-451.44 173.01,-452.7"/>
<text text-anchor="middle" x="149.5" y="-345.4" font-family="Helvetica,Arial,sans-serif" font-size="14.00">0/2</text>
</g>
<!-- 1 -->
<g id="node12" class="node">
<title>1</title>
<ellipse fill="none" stroke="black" cx="141" cy="-105" rx="18" ry="18"/>
<text text-anchor="middle" x="141" y="-101.3" font-family="Helvetica,Arial,sans-serif" font-size="14.00">1</text>
</g>
<!-- 1&#45;&gt;5 -->
<g id="edge14" class="edge">
<title>1&#45;&gt;5</title>
<path fill="none" stroke="black" d="M151.4,-120.04C161.16,-133.2 175.92,-153.11 187.32,-168.49"/>
<polygon fill="black" stroke="black" points="184.81,-170.99 193.58,-176.94 190.44,-166.83 184.81,-170.99"/>
<text text-anchor="middle" x="185.5" y="-144.8" font-family="Helvetica,Arial,sans-serif" font-size="14.00">1/2</text>
</g>
<!-- 1&#45;&gt;6 -->
<g id="edge15" class="edge">
<title>1&#45;&gt;6</title>
<path fill="none" stroke="black" d="M132.24,-121.2C124.92,-133.89 114.36,-152.21 105.89,-166.9"/>
<polygon fill="black" stroke="black" points="102.65,-165.52 100.68,-175.94 108.71,-169.02 102.65,-165.52"/>
<text text-anchor="middle" x="109.5" y="-144.8" font-family="Helvetica,Arial,sans-serif" font-size="14.00">0/2</text>
</g>
<!-- 1&#45;&gt;4 -->
<g id="edge16" class="edge">
<title>1&#45;&gt;4</title>
<path fill="none" stroke="black" d="M141,-123C141,-132 141,-141 141,-141 141,-141 140.57,-186.31 140.27,-217.4"/>
<polygon fill="black" stroke="black" points="136.77,-217.68 140.17,-227.71 143.77,-217.74 136.77,-217.68"/>
<text text-anchor="middle" x="150.5" y="-144.8" font-family="Helvetica,Arial,sans-serif" font-size="14.00">0/2</text>
</g>
<!-- 0 -->
<g id="node13" class="node">
<title>0</title>
<ellipse fill="none" stroke="black" cx="141" cy="-18" rx="18" ry="18"/>
<text text-anchor="middle" x="141" y="-14.3" font-family="Helvetica,Arial,sans-serif" font-size="14.00">0</text>
</g>
<!-- 0&#45;&gt;3 -->
<g id="edge19" class="edge">
<title>0&#45;&gt;3</title>
<path fill="none" stroke="black" d="M128.61,-31.54C114.88,-45.43 92.57,-68.01 76.5,-84.27"/>
<polygon fill="black" stroke="black" points="73.71,-82.11 69.17,-91.68 78.69,-87.03 73.71,-82.11"/>
<text text-anchor="middle" x="113.5" y="-57.8" font-family="Helvetica,Arial,sans-serif" font-size="14.00">2/2</text>
</g>
<!-- 0&#45;&gt;2 -->
<g id="edge18" class="edge">
<title>0&#45;&gt;2</title>
<path fill="none" stroke="black" d="M152.09,-32.66C162.95,-46.04 179.68,-66.65 192.37,-82.28"/>
<polygon fill="black" stroke="black" points="189.92,-84.82 198.94,-90.38 195.36,-80.41 189.92,-84.82"/>
<text text-anchor="middle" x="188.5" y="-57.8" font-family="Helvetica,Arial,sans-serif" font-size="14.00">1/2</text>
</g>
<!-- 0&#45;&gt;1 -->
<g id="edge17" class="edge">
<title>0&#45;&gt;1</title>
<path fill="none" stroke="black" d="M141,-36.2C141,-47.84 141,-63.45 141,-76.76"/>
<polygon fill="black" stroke="black" points="137.5,-76.82 141,-86.82 144.5,-76.82 137.5,-76.82"/>
<text text-anchor="middle" x="150.5" y="-57.8" font-family="Helvetica,Arial,sans-serif" font-size="14.00">1/4</text>
</g>
</g>
</svg>
