<?xml version="1.0" encoding="UTF-8" standalone="no"?>
<!DOCTYPE svg PUBLIC "-//W3C//DTD SVG 1.1//EN"
 "http://www.w3.org/Graphics/SVG/1.1/DTD/svg11.dtd">
<!-- Generated by graphviz version 2.43.0 (0)
 -->
<!-- Title: exported_graph Pages: 1 -->
<svg width="281pt" height="479pt"
 viewBox="0.00 0.00 281.00 479.00" xmlns="http://www.w3.org/2000/svg" xmlns:xlink="http://www.w3.org/1999/xlink">
<g id="graph0" class="graph" transform="scale(1 1) rotate(0) translate(4 475)">
<title>exported_graph</title>
<polygon fill="white" stroke="transparent" points="-4,4 -4,-475 277,-475 277,4 -4,4"/>
<!-- 3 -->
<g id="node1" class="node">
<title>3</title>
<ellipse fill="none" stroke="black" cx="145" cy="-18" rx="18" ry="18"/>
<text text-anchor="middle" x="145" y="-14.3" font-family="Helvetica,Arial,sans-serif" font-size="14.00">3</text>
</g>
<!-- 0 -->
<g id="node2" class="node">
<title>0</title>
<ellipse fill="none" stroke="black" cx="63" cy="-105" rx="18" ry="18"/>
<text text-anchor="middle" x="63" y="-101.3" font-family="Helvetica,Arial,sans-serif" font-size="14.00">0</text>
</g>
<!-- 3&#45;&gt;0 -->
<g id="edge1" class="edge">
<title>3&#45;&gt;0</title>
<path fill="none" stroke="black" d="M132.9,-31.54C119.58,-45.35 97.97,-67.75 82.3,-83.99"/>
<polygon fill="black" stroke="black" points="79.57,-81.78 75.15,-91.41 84.61,-86.64 79.57,-81.78"/>
<text text-anchor="middle" x="58.5" y="-57.8" font-family="Helvetica,Arial,sans-serif" font-size="14.00">0/3</text>
</g>
<!-- 2 -->
<g id="node3" class="node">
<title>2</title>
<ellipse fill="none" stroke="black" cx="112" cy="-279" rx="18" ry="18"/>
<text text-anchor="middle" x="112" y="-275.3" font-family="Helvetica,Arial,sans-serif" font-size="14.00">2</text>
</g>
<!-- 3&#45;&gt;2 -->
<g id="edge2" class="edge">
<title>3&#45;&gt;2</title>
<path fill="none" stroke="black" d="M148.05,-35.89C153.88,-70 166,-141 166,-141 166,-141 137.99,-212.58 122.32,-252.64"/>
<polygon fill="black" stroke="black" points="119.01,-251.49 118.62,-262.08 125.52,-254.04 119.01,-251.49"/>
<text text-anchor="middle" x="175.5" y="-144.8" font-family="Helvetica,Arial,sans-serif" font-size="14.00">0/6</text>
</g>
<!-- 4 -->
<g id="node4" class="node">
<title>4</title>
<ellipse fill="none" stroke="black" cx="170" cy="-453" rx="18" ry="18"/>
<text text-anchor="middle" x="170" y="-449.3" font-family="Helvetica,Arial,sans-serif" font-size="14.00">4</text>
</g>
<!-- 3&#45;&gt;4 -->
<g id="edge3" class="edge">
<title>3&#45;&gt;4</title>
<path fill="none" stroke="black" d="M149.93,-35.54C164.11,-86.01 204,-228 204,-228 204,-228 183.35,-364.67 174.23,-424.98"/>
<polygon fill="black" stroke="black" points="170.76,-424.56 172.72,-434.97 177.68,-425.6 170.76,-424.56"/>
<text text-anchor="middle" x="217.5" y="-231.8" font-family="Helvetica,Arial,sans-serif" font-size="14.00">7/10</text>
</g>
<!-- 0&#45;&gt;3 -->
<g id="edge14" class="edge">
<title>0&#45;&gt;3</title>
<path fill="none" stroke="black" d="M75.15,-91.41C88.49,-77.57 110.1,-55.17 125.76,-38.95"/>
<polygon fill="black" stroke="black" points="128.48,-41.17 132.9,-31.54 123.44,-36.31 128.48,-41.17"/>
<text text-anchor="middle" x="100.5" y="-57.8" font-family="Helvetica,Arial,sans-serif" font-size="14.00">4/4</text>
</g>
<!-- 1 -->
<g id="node6" class="node">
<title>1</title>
<ellipse fill="none" stroke="black" cx="33" cy="-192" rx="18" ry="18"/>
<text text-anchor="middle" x="33" y="-188.3" font-family="Helvetica,Arial,sans-serif" font-size="14.00">1</text>
</g>
<!-- 0&#45;&gt;1 -->
<g id="edge15" class="edge">
<title>0&#45;&gt;1</title>
<path fill="none" stroke="black" d="M57.22,-122.39C52.94,-134.5 47.04,-151.23 42.13,-165.14"/>
<polygon fill="black" stroke="black" points="38.79,-164.07 38.77,-174.66 45.4,-166.4 38.79,-164.07"/>
<text text-anchor="middle" x="30" y="-144.8" font-family="Helvetica,Arial,sans-serif" font-size="14.00">10/15</text>
</g>
<!-- 2&#45;&gt;3 -->
<g id="edge12" class="edge">
<title>2&#45;&gt;3</title>
<path fill="none" stroke="black" d="M113.57,-260.96C116.82,-223.55 124,-141 124,-141 124,-141 134.04,-82.18 140.24,-45.89"/>
<polygon fill="black" stroke="black" points="143.71,-46.33 141.95,-35.89 136.81,-45.15 143.71,-46.33"/>
<text text-anchor="middle" x="133.5" y="-144.8" font-family="Helvetica,Arial,sans-serif" font-size="14.00">3/3</text>
</g>
<!-- 5 -->
<g id="node5" class="node">
<title>5</title>
<ellipse fill="none" stroke="black" cx="141" cy="-366" rx="18" ry="18"/>
<text text-anchor="middle" x="141" y="-362.3" font-family="Helvetica,Arial,sans-serif" font-size="14.00">5</text>
</g>
<!-- 2&#45;&gt;5 -->
<g id="edge13" class="edge">
<title>2&#45;&gt;5</title>
<path fill="none" stroke="black" d="M117.59,-296.39C121.72,-308.5 127.43,-325.23 132.18,-339.14"/>
<polygon fill="black" stroke="black" points="128.88,-340.33 135.43,-348.66 135.51,-338.07 128.88,-340.33"/>
<text text-anchor="middle" x="112.5" y="-318.8" font-family="Helvetica,Arial,sans-serif" font-size="14.00">7/7</text>
</g>
<!-- 2&#45;&gt;1 -->
<g id="edge11" class="edge">
<title>2&#45;&gt;1</title>
<path fill="none" stroke="black" d="M100.15,-265.25C87.37,-251.5 66.85,-229.43 51.86,-213.29"/>
<polygon fill="black" stroke="black" points="54.37,-210.85 45,-205.91 49.24,-215.62 54.37,-210.85"/>
<text text-anchor="middle" x="49.5" y="-231.8" font-family="Helvetica,Arial,sans-serif" font-size="14.00">0/6</text>
</g>
<!-- 4&#45;&gt;3 -->
<g id="edge6" class="edge">
<title>4&#45;&gt;3</title>
<path fill="none" stroke="black" d="M176.31,-436.09C195.85,-383.76 254,-228 254,-228 254,-228 186.89,-98.7 157.98,-43.02"/>
<polygon fill="black" stroke="black" points="161.09,-41.39 153.37,-34.13 154.87,-44.62 161.09,-41.39"/>
<text text-anchor="middle" x="263.5" y="-231.8" font-family="Helvetica,Arial,sans-serif" font-size="14.00">0/6</text>
</g>
<!-- 4&#45;&gt;5 -->
<g id="edge8" class="edge">
<title>4&#45;&gt;5</title>
<path fill="none" stroke="black" d="M164.43,-435.66C160.3,-423.56 154.59,-406.83 149.84,-392.92"/>
<polygon fill="black" stroke="black" points="153.13,-391.72 146.59,-383.39 146.51,-393.98 153.13,-391.72"/>
<text text-anchor="middle" x="135.5" y="-405.8" font-family="Helvetica,Arial,sans-serif" font-size="14.00">7/10</text>
</g>
<!-- 4&#45;&gt;1 -->
<g id="edge7" class="edge">
<title>4&#45;&gt;1</title>
<path fill="none" stroke="black" d="M155.79,-441.43C118.2,-410.81 19,-330 19,-330 19,-330 26.06,-260.44 30.15,-220.09"/>
<polygon fill="black" stroke="black" points="33.64,-220.34 31.17,-210.04 26.68,-219.64 33.64,-220.34"/>
<text text-anchor="middle" x="9.5" y="-318.8" font-family="Helvetica,Arial,sans-serif" font-size="14.00">0/5</text>
</g>
<!-- 5&#45;&gt;2 -->
<g id="edge4" class="edge">
<title>5&#45;&gt;2</title>
<path fill="none" stroke="black" d="M135.43,-348.66C131.3,-336.56 125.59,-319.83 120.84,-305.92"/>
<polygon fill="black" stroke="black" points="124.13,-304.72 117.59,-296.39 117.51,-306.98 124.13,-304.72"/>
<text text-anchor="middle" x="139.5" y="-318.8" font-family="Helvetica,Arial,sans-serif" font-size="14.00">0/3</text>
</g>
<!-- 5&#45;&gt;4 -->
<g id="edge5" class="edge">
<title>5&#45;&gt;4</title>
<path fill="none" stroke="black" d="M146.59,-383.39C150.72,-395.5 156.43,-412.23 161.18,-426.14"/>
<polygon fill="black" stroke="black" points="157.88,-427.33 164.43,-435.66 164.51,-425.07 157.88,-427.33"/>
<text text-anchor="middle" x="166.5" y="-405.8" font-family="Helvetica,Arial,sans-serif" font-size="14.00">0/5</text>
</g>
<!-- 1&#45;&gt;0 -->
<g id="edge9" class="edge">
<title>1&#45;&gt;0</title>
<path fill="none" stroke="black" d="M38.77,-174.66C43.04,-162.56 48.94,-145.83 53.85,-131.92"/>
<polygon fill="black" stroke="black" points="57.19,-132.98 57.22,-122.39 50.59,-130.65 57.19,-132.98"/>
<text text-anchor="middle" x="64.5" y="-144.8" font-family="Helvetica,Arial,sans-serif" font-size="14.00">0/4</text>
</g>
<!-- 1&#45;&gt;2 -->
<g id="edge10" class="edge">
<title>1&#45;&gt;2</title>
<path fill="none" stroke="black" d="M45,-205.91C57.83,-219.72 78.36,-241.8 93.31,-257.89"/>
<polygon fill="black" stroke="black" points="90.78,-260.31 100.15,-265.25 95.9,-255.54 90.78,-260.31"/>
<text text-anchor="middle" x="93" y="-231.8" font-family="Helvetica,Arial,sans-serif" font-size="14.00">10/12</text>
</g>
</g>
</svg>
