<?xml version="1.0" encoding="UTF-8" standalone="no"?>
<!DOCTYPE svg PUBLIC "-//W3C//DTD SVG 1.1//EN"
 "http://www.w3.org/Graphics/SVG/1.1/DTD/svg11.dtd">
<!-- Generated by graphviz version 2.43.0 (0)
 -->
<!-- Title: exported_graph Pages: 1 -->
<svg width="102pt" height="218pt"
 viewBox="0.00 0.00 102.00 218.00" xmlns="http://www.w3.org/2000/svg" xmlns:xlink="http://www.w3.org/1999/xlink">
<g id="graph0" class="graph" transform="scale(1 1) rotate(0) translate(4 214)">
<title>exported_graph</title>
<polygon fill="white" stroke="transparent" points="-4,4 -4,-214 98,-214 98,4 -4,4"/>
<!-- 1 -->
<g id="node1" class="node">
<title>1</title>
<ellipse fill="none" stroke="black" cx="41" cy="-18" rx="18" ry="18"/>
<text text-anchor="middle" x="41" y="-14.3" font-family="Helvetica,Arial,sans-serif" font-size="14.00">1</text>
</g>
<!-- 0 -->
<g id="node2" class="node">
<title>0</title>
<ellipse fill="none" stroke="black" cx="21" cy="-105" rx="18" ry="18"/>
<text text-anchor="middle" x="21" y="-101.3" font-family="Helvetica,Arial,sans-serif" font-size="14.00">0</text>
</g>
<!-- 1&#45;&gt;0 -->
<g id="edge1" class="edge">
<title>1&#45;&gt;0</title>
<path fill="none" stroke="black" d="M37.05,-35.79C34.25,-47.67 30.45,-63.83 27.25,-77.44"/>
<polygon fill="black" stroke="black" points="23.83,-76.71 24.94,-87.24 30.64,-78.31 23.83,-76.71"/>
<text text-anchor="middle" x="9.5" y="-57.8" font-family="Helvetica,Arial,sans-serif" font-size="14.00">0/4</text>
</g>
<!-- 2 -->
<g id="node3" class="node">
<title>2</title>
<ellipse fill="none" stroke="black" cx="48" cy="-192" rx="18" ry="18"/>
<text text-anchor="middle" x="48" y="-188.3" font-family="Helvetica,Arial,sans-serif" font-size="14.00">2</text>
</g>
<!-- 1&#45;&gt;2 -->
<g id="edge2" class="edge">
<title>1&#45;&gt;2</title>
<path fill="none" stroke="black" d="M48.21,-34.86C58.19,-58.2 75,-97.5 75,-97.5 75,-97.5 63.69,-137.07 55.71,-165"/>
<polygon fill="black" stroke="black" points="52.33,-164.09 52.95,-174.67 59.06,-166.01 52.33,-164.09"/>
<text text-anchor="middle" x="84.5" y="-101.3" font-family="Helvetica,Arial,sans-serif" font-size="14.00">0/3</text>
</g>
<!-- 0&#45;&gt;1 -->
<g id="edge4" class="edge">
<title>0&#45;&gt;1</title>
<path fill="none" stroke="black" d="M24.94,-87.24C27.74,-75.38 31.54,-59.21 34.74,-45.6"/>
<polygon fill="black" stroke="black" points="38.17,-46.33 37.05,-35.79 31.35,-44.73 38.17,-46.33"/>
<text text-anchor="middle" x="41.5" y="-57.8" font-family="Helvetica,Arial,sans-serif" font-size="14.00">0/2</text>
</g>
<!-- 0&#45;&gt;2 -->
<g id="edge3" class="edge">
<title>0&#45;&gt;2</title>
<path fill="none" stroke="black" d="M26.21,-122.39C30.02,-134.38 35.26,-150.91 39.66,-164.73"/>
<polygon fill="black" stroke="black" points="36.45,-166.19 42.81,-174.66 43.12,-164.07 36.45,-166.19"/>
<text text-anchor="middle" x="45.5" y="-144.8" font-family="Helvetica,Arial,sans-serif" font-size="14.00">4/4</text>
</g>
</g>
</svg>
