<?xml version="1.0" encoding="UTF-8" standalone="no"?>
<!DOCTYPE svg PUBLIC "-//W3C//DTD SVG 1.1//EN"
 "http://www.w3.org/Graphics/SVG/1.1/DTD/svg11.dtd">
<!-- Generated by graphviz version 2.43.0 (0)
 -->
<!-- Title: exported_graph Pages: 1 -->
<svg width="382pt" height="311pt"
 viewBox="0.00 0.00 382.00 310.60" xmlns="http://www.w3.org/2000/svg" xmlns:xlink="http://www.w3.org/1999/xlink">
<g id="graph0" class="graph" transform="scale(1 1) rotate(0) translate(4 306.6)">
<title>exported_graph</title>
<polygon fill="white" stroke="transparent" points="-4,4 -4,-306.6 378,-306.6 378,4 -4,4"/>
<!-- 6 -->
<g id="node1" class="node">
<title>6</title>
<ellipse fill="none" stroke="black" cx="348" cy="-197.6" rx="18" ry="18"/>
<text text-anchor="middle" x="348" y="-193.9" font-family="Helvetica,Arial,sans-serif" font-size="14.00">6</text>
</g>
<!-- 1 -->
<g id="node2" class="node">
<title>1</title>
<ellipse fill="none" stroke="black" cx="148" cy="-284.6" rx="18" ry="18"/>
<text text-anchor="middle" x="148" y="-280.9" font-family="Helvetica,Arial,sans-serif" font-size="14.00">1</text>
</g>
<!-- 6&#45;&gt;1 -->
<g id="edge1" class="edge">
<title>6&#45;&gt;1</title>
<path fill="none" stroke="black" d="M331.63,-205.55C296.83,-220.34 215.24,-255.02 173.53,-272.75"/>
<polygon fill="black" stroke="black" points="172.15,-269.53 164.31,-276.66 174.88,-275.97 172.15,-269.53"/>
<text text-anchor="middle" x="268.5" y="-237.4" font-family="Helvetica,Arial,sans-serif" font-size="14.00">1/1</text>
</g>
<!-- 5 -->
<g id="node3" class="node">
<title>5</title>
<ellipse fill="none" stroke="black" cx="18" cy="-197.6" rx="18" ry="18"/>
<text text-anchor="middle" x="18" y="-193.9" font-family="Helvetica,Arial,sans-serif" font-size="14.00">5</text>
</g>
<!-- 5&#45;&gt;1 -->
<g id="edge2" class="edge">
<title>5&#45;&gt;1</title>
<path fill="none" stroke="black" d="M32.66,-208.18C55.09,-222.85 98.13,-250.99 124.82,-268.44"/>
<polygon fill="black" stroke="black" points="122.91,-271.37 133.19,-273.92 126.74,-265.51 122.91,-271.37"/>
<text text-anchor="middle" x="100.5" y="-237.4" font-family="Helvetica,Arial,sans-serif" font-size="14.00">0/1</text>
</g>
<!-- 4 -->
<g id="node4" class="node">
<title>4</title>
<ellipse fill="none" stroke="black" cx="87" cy="-197.6" rx="18" ry="18"/>
<text text-anchor="middle" x="87" y="-193.9" font-family="Helvetica,Arial,sans-serif" font-size="14.00">4</text>
</g>
<!-- 4&#45;&gt;1 -->
<g id="edge3" class="edge">
<title>4&#45;&gt;1</title>
<path fill="none" stroke="black" d="M97.07,-212.63C106.52,-225.8 120.81,-245.71 131.85,-261.09"/>
<polygon fill="black" stroke="black" points="129.24,-263.46 137.91,-269.54 134.93,-259.37 129.24,-263.46"/>
<text text-anchor="middle" x="131.5" y="-237.4" font-family="Helvetica,Arial,sans-serif" font-size="14.00">1/1</text>
</g>
<!-- 3 -->
<g id="node5" class="node">
<title>3</title>
<ellipse fill="none" stroke="black" cx="237" cy="-197.6" rx="18" ry="18"/>
<text text-anchor="middle" x="237" y="-193.9" font-family="Helvetica,Arial,sans-serif" font-size="14.00">3</text>
</g>
<!-- 3&#45;&gt;1 -->
<g id="edge4" class="edge">
<title>3&#45;&gt;1</title>
<path fill="none" stroke="black" d="M224.25,-210.77C209.58,-224.79 185.3,-247.98 168.08,-264.42"/>
<polygon fill="black" stroke="black" points="165.54,-262 160.73,-271.44 170.38,-267.06 165.54,-262"/>
<text text-anchor="middle" x="207.5" y="-237.4" font-family="Helvetica,Arial,sans-serif" font-size="14.00">1/1</text>
</g>
<!-- 2 -->
<g id="node6" class="node">
<title>2</title>
<ellipse fill="none" stroke="black" cx="148" cy="-197.6" rx="18" ry="18"/>
<text text-anchor="middle" x="148" y="-193.9" font-family="Helvetica,Arial,sans-serif" font-size="14.00">2</text>
</g>
<!-- 2&#45;&gt;1 -->
<g id="edge5" class="edge">
<title>2&#45;&gt;1</title>
<path fill="none" stroke="black" d="M148,-215.8C148,-227.43 148,-243.05 148,-256.36"/>
<polygon fill="black" stroke="black" points="144.5,-256.42 148,-266.42 151.5,-256.42 144.5,-256.42"/>
<text text-anchor="middle" x="157.5" y="-237.4" font-family="Helvetica,Arial,sans-serif" font-size="14.00">1/1</text>
</g>
<!-- 0 -->
<g id="node7" class="node">
<title>0</title>
<ellipse fill="none" stroke="black" cx="189" cy="-18" rx="18" ry="18"/>
<text text-anchor="middle" x="189" y="-14.3" font-family="Helvetica,Arial,sans-serif" font-size="14.00">0</text>
</g>
<!-- 11 -->
<g id="node8" class="node">
<title>11</title>
<ellipse fill="none" stroke="black" cx="125" cy="-107.8" rx="20.6" ry="20.6"/>
<text text-anchor="middle" x="125" y="-104.1" font-family="Helvetica,Arial,sans-serif" font-size="14.00">11</text>
</g>
<!-- 0&#45;&gt;11 -->
<g id="edge6" class="edge">
<title>0&#45;&gt;11</title>
<path fill="none" stroke="black" d="M178.72,-33.11C169.06,-46.36 154.4,-66.47 142.83,-82.33"/>
<polygon fill="black" stroke="black" points="139.84,-80.5 136.78,-90.64 145.5,-84.62 139.84,-80.5"/>
<text text-anchor="middle" x="172.5" y="-57.8" font-family="Helvetica,Arial,sans-serif" font-size="14.00">1/1</text>
</g>
<!-- 10 -->
<g id="node9" class="node">
<title>10</title>
<ellipse fill="none" stroke="black" cx="335" cy="-107.8" rx="20.6" ry="20.6"/>
<text text-anchor="middle" x="335" y="-104.1" font-family="Helvetica,Arial,sans-serif" font-size="14.00">10</text>
</g>
<!-- 0&#45;&gt;10 -->
<g id="edge7" class="edge">
<title>0&#45;&gt;10</title>
<path fill="none" stroke="black" d="M204.07,-28.07C228.77,-42.92 278.14,-72.61 308.7,-90.98"/>
<polygon fill="black" stroke="black" points="307.16,-94.14 317.53,-96.29 310.77,-88.14 307.16,-94.14"/>
<text text-anchor="middle" x="279.5" y="-57.8" font-family="Helvetica,Arial,sans-serif" font-size="14.00">1/1</text>
</g>
<!-- 9 -->
<g id="node10" class="node">
<title>9</title>
<ellipse fill="none" stroke="black" cx="251" cy="-107.8" rx="18" ry="18"/>
<text text-anchor="middle" x="251" y="-104.1" font-family="Helvetica,Arial,sans-serif" font-size="14.00">9</text>
</g>
<!-- 0&#45;&gt;9 -->
<g id="edge8" class="edge">
<title>0&#45;&gt;9</title>
<path fill="none" stroke="black" d="M198.96,-33.11C208.72,-46.93 223.76,-68.22 235.16,-84.36"/>
<polygon fill="black" stroke="black" points="232.44,-86.58 241.06,-92.73 238.15,-82.54 232.44,-86.58"/>
<text text-anchor="middle" x="232.5" y="-57.8" font-family="Helvetica,Arial,sans-serif" font-size="14.00">1/1</text>
</g>
<!-- 8 -->
<g id="node11" class="node">
<title>8</title>
<ellipse fill="none" stroke="black" cx="189" cy="-107.8" rx="18" ry="18"/>
<text text-anchor="middle" x="189" y="-104.1" font-family="Helvetica,Arial,sans-serif" font-size="14.00">8</text>
</g>
<!-- 0&#45;&gt;8 -->
<g id="edge9" class="edge">
<title>0&#45;&gt;8</title>
<path fill="none" stroke="black" d="M189,-36.35C189,-48.69 189,-65.52 189,-79.64"/>
<polygon fill="black" stroke="black" points="185.5,-79.79 189,-89.79 192.5,-79.79 185.5,-79.79"/>
<text text-anchor="middle" x="198.5" y="-57.8" font-family="Helvetica,Arial,sans-serif" font-size="14.00">1/1</text>
</g>
<!-- 7 -->
<g id="node12" class="node">
<title>7</title>
<ellipse fill="none" stroke="black" cx="41" cy="-107.8" rx="18" ry="18"/>
<text text-anchor="middle" x="41" y="-104.1" font-family="Helvetica,Arial,sans-serif" font-size="14.00">7</text>
</g>
<!-- 0&#45;&gt;7 -->
<g id="edge10" class="edge">
<title>0&#45;&gt;7</title>
<path fill="none" stroke="black" d="M173.72,-28.07C148.02,-43.31 95.94,-74.21 65.22,-92.43"/>
<polygon fill="black" stroke="black" points="63.23,-89.54 56.42,-97.65 66.81,-95.56 63.23,-89.54"/>
<text text-anchor="middle" x="138.5" y="-57.8" font-family="Helvetica,Arial,sans-serif" font-size="14.00">0/1</text>
</g>
<!-- 11&#45;&gt;4 -->
<g id="edge11" class="edge">
<title>11&#45;&gt;4</title>
<path fill="none" stroke="black" d="M116.94,-127.42C111.44,-140.14 104.07,-157.15 98.03,-171.12"/>
<polygon fill="black" stroke="black" points="94.66,-170.08 93.9,-180.65 101.08,-172.87 94.66,-170.08"/>
<text text-anchor="middle" x="112.5" y="-150.4" font-family="Helvetica,Arial,sans-serif" font-size="14.00">0/1</text>
</g>
<!-- 11&#45;&gt;2 -->
<g id="edge12" class="edge">
<title>11&#45;&gt;2</title>
<path fill="none" stroke="black" d="M130.1,-128.28C133.35,-140.68 137.6,-156.89 141.14,-170.41"/>
<polygon fill="black" stroke="black" points="137.76,-171.33 143.68,-180.11 144.53,-169.55 137.76,-171.33"/>
<text text-anchor="middle" x="135.5" y="-150.4" font-family="Helvetica,Arial,sans-serif" font-size="14.00">1/1</text>
</g>
<!-- 10&#45;&gt;6 -->
<g id="edge13" class="edge">
<title>10&#45;&gt;6</title>
<path fill="none" stroke="black" d="M337.95,-128.72C339.75,-140.86 342.07,-156.52 344.02,-169.74"/>
<polygon fill="black" stroke="black" points="340.57,-170.33 345.5,-179.71 347.5,-169.3 340.57,-170.33"/>
<text text-anchor="middle" x="364.5" y="-150.4" font-family="Helvetica,Arial,sans-serif" font-size="14.00">1/1</text>
</g>
<!-- 10&#45;&gt;3 -->
<g id="edge14" class="edge">
<title>10&#45;&gt;3</title>
<path fill="none" stroke="black" d="M319.69,-122.52C302.99,-137.47 276.19,-161.49 257.64,-178.1"/>
<polygon fill="black" stroke="black" points="255.13,-175.66 250.01,-184.94 259.8,-180.87 255.13,-175.66"/>
<text text-anchor="middle" x="313.5" y="-150.4" font-family="Helvetica,Arial,sans-serif" font-size="14.00">0/1</text>
</g>
<!-- 9&#45;&gt;3 -->
<g id="edge15" class="edge">
<title>9&#45;&gt;3</title>
<path fill="none" stroke="black" d="M248.3,-125.73C246.33,-138.12 243.6,-155.18 241.33,-169.47"/>
<polygon fill="black" stroke="black" points="237.81,-169.29 239.69,-179.72 244.72,-170.4 237.81,-169.29"/>
<text text-anchor="middle" x="280.5" y="-150.4" font-family="Helvetica,Arial,sans-serif" font-size="14.00">1/1</text>
</g>
<!-- 9&#45;&gt;2 -->
<g id="edge16" class="edge">
<title>9&#45;&gt;2</title>
<path fill="none" stroke="black" d="M237.53,-120.28C220.19,-135.07 189.82,-160.95 169.32,-178.42"/>
<polygon fill="black" stroke="black" points="166.81,-175.96 161.47,-185.12 171.35,-181.29 166.81,-175.96"/>
<text text-anchor="middle" x="243.5" y="-150.4" font-family="Helvetica,Arial,sans-serif" font-size="14.00">0/1</text>
</g>
<!-- 8&#45;&gt;4 -->
<g id="edge17" class="edge">
<title>8&#45;&gt;4</title>
<path fill="none" stroke="black" d="M175.67,-120.28C158.48,-135.07 128.42,-160.95 108.11,-178.42"/>
<polygon fill="black" stroke="black" points="105.63,-175.94 100.34,-185.12 110.2,-181.24 105.63,-175.94"/>
<text text-anchor="middle" x="166.5" y="-150.4" font-family="Helvetica,Arial,sans-serif" font-size="14.00">1/1</text>
</g>
<!-- 8&#45;&gt;3 -->
<g id="edge18" class="edge">
<title>8&#45;&gt;3</title>
<path fill="none" stroke="black" d="M197.36,-124.09C204.66,-137.44 215.37,-157.03 223.82,-172.48"/>
<polygon fill="black" stroke="black" points="220.87,-174.38 228.73,-181.48 227.01,-171.02 220.87,-174.38"/>
<text text-anchor="middle" x="219.5" y="-150.4" font-family="Helvetica,Arial,sans-serif" font-size="14.00">0/1</text>
</g>
<!-- 7&#45;&gt;5 -->
<g id="edge20" class="edge">
<title>7&#45;&gt;5</title>
<path fill="none" stroke="black" d="M36.67,-125.31C33.39,-137.86 28.8,-155.39 24.99,-169.92"/>
<polygon fill="black" stroke="black" points="21.53,-169.3 22.38,-179.86 28.3,-171.07 21.53,-169.3"/>
<text text-anchor="middle" x="9.5" y="-150.4" font-family="Helvetica,Arial,sans-serif" font-size="14.00">0/1</text>
</g>
<!-- 7&#45;&gt;4 -->
<g id="edge19" class="edge">
<title>7&#45;&gt;4</title>
<path fill="none" stroke="black" d="M49.01,-124.09C55.96,-137.36 66.14,-156.79 74.22,-172.2"/>
<polygon fill="black" stroke="black" points="71.18,-173.95 78.92,-181.18 77.38,-170.7 71.18,-173.95"/>
<text text-anchor="middle" x="78.5" y="-150.4" font-family="Helvetica,Arial,sans-serif" font-size="14.00">0/1</text>
</g>
</g>
</svg>
