<?xml version="1.0" encoding="UTF-8" standalone="no"?>
<!DOCTYPE svg PUBLIC "-//W3C//DTD SVG 1.1//EN"
 "http://www.w3.org/Graphics/SVG/1.1/DTD/svg11.dtd">
<!-- Generated by graphviz version 2.43.0 (0)
 -->
<!-- Title: exported_graph Pages: 1 -->
<svg width="181pt" height="392pt"
 viewBox="0.00 0.00 181.00 392.00" xmlns="http://www.w3.org/2000/svg" xmlns:xlink="http://www.w3.org/1999/xlink">
<g id="graph0" class="graph" transform="scale(1 1) rotate(0) translate(4 388)">
<title>exported_graph</title>
<polygon fill="white" stroke="transparent" points="-4,4 -4,-388 177,-388 177,4 -4,4"/>
<!-- 4 -->
<g id="node1" class="node">
<title>4</title>
<ellipse fill="none" stroke="black" cx="79" cy="-279" rx="18" ry="18"/>
<text text-anchor="middle" x="79" y="-275.3" font-family="Helvetica,Arial,sans-serif" font-size="14.00">4</text>
</g>
<!-- 5 -->
<g id="node2" class="node">
<title>5</title>
<ellipse fill="none" stroke="black" cx="112" cy="-366" rx="18" ry="18"/>
<text text-anchor="middle" x="112" y="-362.3" font-family="Helvetica,Arial,sans-serif" font-size="14.00">5</text>
</g>
<!-- 4&#45;&gt;5 -->
<g id="edge1" class="edge">
<title>4&#45;&gt;5</title>
<path fill="none" stroke="black" d="M85.21,-295.99C89.95,-308.22 96.6,-325.32 102.08,-339.44"/>
<polygon fill="black" stroke="black" points="98.94,-341.03 105.82,-349.08 105.46,-338.49 98.94,-341.03"/>
<text text-anchor="middle" x="108" y="-318.8" font-family="Helvetica,Arial,sans-serif" font-size="14.00">11/14</text>
</g>
<!-- 1 -->
<g id="node3" class="node">
<title>1</title>
<ellipse fill="none" stroke="black" cx="133" cy="-192" rx="18" ry="18"/>
<text text-anchor="middle" x="133" y="-188.3" font-family="Helvetica,Arial,sans-serif" font-size="14.00">1</text>
</g>
<!-- 1&#45;&gt;4 -->
<g id="edge3" class="edge">
<title>1&#45;&gt;4</title>
<path fill="none" stroke="black" d="M123.59,-207.81C115.39,-220.73 103.34,-239.69 93.83,-254.66"/>
<polygon fill="black" stroke="black" points="90.71,-253.05 88.3,-263.36 96.61,-256.8 90.71,-253.05"/>
<text text-anchor="middle" x="115.5" y="-231.8" font-family="Helvetica,Arial,sans-serif" font-size="14.00">0/1</text>
</g>
<!-- 1&#45;&gt;5 -->
<g id="edge2" class="edge">
<title>1&#45;&gt;5</title>
<path fill="none" stroke="black" d="M134.36,-210.04C136.13,-233.5 139,-271.5 139,-271.5 139,-271.5 127.69,-311.07 119.71,-339"/>
<polygon fill="black" stroke="black" points="116.33,-338.09 116.95,-348.67 123.06,-340.01 116.33,-338.09"/>
<text text-anchor="middle" x="156" y="-275.3" font-family="Helvetica,Arial,sans-serif" font-size="14.00">14/21</text>
</g>
<!-- 3 -->
<g id="node4" class="node">
<title>3</title>
<ellipse fill="none" stroke="black" cx="72" cy="-105" rx="18" ry="18"/>
<text text-anchor="middle" x="72" y="-101.3" font-family="Helvetica,Arial,sans-serif" font-size="14.00">3</text>
</g>
<!-- 3&#45;&gt;4 -->
<g id="edge6" class="edge">
<title>3&#45;&gt;4</title>
<path fill="none" stroke="black" d="M72,-123.04C72,-146.5 72,-184.5 72,-184.5 72,-184.5 74.84,-222.88 76.91,-250.73"/>
<polygon fill="black" stroke="black" points="73.42,-251.07 77.65,-260.78 80.4,-250.55 73.42,-251.07"/>
<text text-anchor="middle" x="81.5" y="-188.3" font-family="Helvetica,Arial,sans-serif" font-size="14.00">2/5</text>
</g>
<!-- 3&#45;&gt;1 -->
<g id="edge4" class="edge">
<title>3&#45;&gt;1</title>
<path fill="none" stroke="black" d="M82.07,-120.04C91.52,-133.2 105.81,-153.11 116.85,-168.49"/>
<polygon fill="black" stroke="black" points="114.24,-170.86 122.91,-176.94 119.93,-166.78 114.24,-170.86"/>
<text text-anchor="middle" x="119.5" y="-144.8" font-family="Helvetica,Arial,sans-serif" font-size="14.00">7/11</text>
</g>
<!-- 2 -->
<g id="node5" class="node">
<title>2</title>
<ellipse fill="none" stroke="black" cx="18" cy="-192" rx="18" ry="18"/>
<text text-anchor="middle" x="18" y="-188.3" font-family="Helvetica,Arial,sans-serif" font-size="14.00">2</text>
</g>
<!-- 3&#45;&gt;2 -->
<g id="edge5" class="edge">
<title>3&#45;&gt;2</title>
<path fill="none" stroke="black" d="M62.59,-120.81C54.39,-133.73 42.34,-152.69 32.83,-167.66"/>
<polygon fill="black" stroke="black" points="29.71,-166.05 27.3,-176.36 35.61,-169.8 29.71,-166.05"/>
<text text-anchor="middle" x="48.5" y="-144.8" font-family="Helvetica,Arial,sans-serif" font-size="14.00">1/2</text>
</g>
<!-- 2&#45;&gt;4 -->
<g id="edge7" class="edge">
<title>2&#45;&gt;4</title>
<path fill="none" stroke="black" d="M28.07,-207.04C37.52,-220.2 51.81,-240.11 62.85,-255.49"/>
<polygon fill="black" stroke="black" points="60.24,-257.86 68.91,-263.94 65.93,-253.78 60.24,-257.86"/>
<text text-anchor="middle" x="44.5" y="-231.8" font-family="Helvetica,Arial,sans-serif" font-size="14.00">9/12</text>
</g>
<!-- 0 -->
<g id="node6" class="node">
<title>0</title>
<ellipse fill="none" stroke="black" cx="72" cy="-18" rx="18" ry="18"/>
<text text-anchor="middle" x="72" y="-14.3" font-family="Helvetica,Arial,sans-serif" font-size="14.00">0</text>
</g>
<!-- 0&#45;&gt;1 -->
<g id="edge8" class="edge">
<title>0&#45;&gt;1</title>
<path fill="none" stroke="black" d="M84.38,-31.13C105.69,-53.71 147,-97.5 147,-97.5 147,-97.5 141.31,-135.88 137.19,-163.73"/>
<polygon fill="black" stroke="black" points="133.7,-163.37 135.7,-173.78 140.63,-164.4 133.7,-163.37"/>
<text text-anchor="middle" x="156.5" y="-101.3" font-family="Helvetica,Arial,sans-serif" font-size="14.00">7/7</text>
</g>
<!-- 0&#45;&gt;3 -->
<g id="edge9" class="edge">
<title>0&#45;&gt;3</title>
<path fill="none" stroke="black" d="M72,-36.2C72,-47.84 72,-63.45 72,-76.76"/>
<polygon fill="black" stroke="black" points="68.5,-76.82 72,-86.82 75.5,-76.82 68.5,-76.82"/>
<text text-anchor="middle" x="89" y="-57.8" font-family="Helvetica,Arial,sans-serif" font-size="14.00">10/10</text>
</g>
<!-- 0&#45;&gt;2 -->
<g id="edge10" class="edge">
<title>0&#45;&gt;2</title>
<path fill="none" stroke="black" d="M63.64,-34.46C49.89,-61.54 24,-112.5 24,-112.5 24,-112.5 21.84,-141.08 20.12,-163.97"/>
<polygon fill="black" stroke="black" points="16.62,-163.73 19.36,-173.96 23.6,-164.25 16.62,-163.73"/>
<text text-anchor="middle" x="14.5" y="-101.3" font-family="Helvetica,Arial,sans-serif" font-size="14.00">8/8</text>
</g>
</g>
</svg>
